<mxfile host="app.diagrams.net" modified="2022-07-16T06:16:35.286Z" agent="5.0 (Windows NT 10.0; Win64; x64) AppleWebKit/537.36 (KHTML, like Gecko) Chrome/103.0.0.0 Safari/537.36" etag="o2FXA5lq3U7tWBeQRjvX" version="17.5.0" type="github">
  <diagram id="5ifeJWDmLZwHSnRLMOx1" name="第 1 页">
    <mxGraphModel dx="1597" dy="829" grid="1" gridSize="10" guides="1" tooltips="1" connect="1" arrows="1" fold="1" page="1" pageScale="1" pageWidth="827" pageHeight="1169" math="0" shadow="0">
      <root>
        <mxCell id="0" />
        <mxCell id="1" parent="0" />
        <mxCell id="XZMZt5-lRbTDoXXR2d9s-1" value="" style="shape=image;verticalLabelPosition=bottom;labelBackgroundColor=default;verticalAlign=top;aspect=fixed;imageAspect=0;image=data:image/png,iVBORw0KGgoAAAANSUhEUgAAAbQAAAMlCAYAAAAbkQaJAAAgAElEQVR4nOy9v4vkxtb//9YwgbNNzcULEp0Mpr1/wWNosYmaAUdzgxu3kmFTiYELjszaLK10mUSdPje4E9kMrWQfCW7+ddJ4+xPMV3LwrA0OPmMceB3VJ5C6W79aKqnV07/eL2h2R1Kdc6pUp0qqKtVRHh8fBQghhJAD52zXBhBCCCFdwA6NEELIUcAOjRBCyFHADo0QQshRwA6NEELIUXD+/z8KfPP9T/jtj78aJfz02Sf4+qvP8eL5sy2ZRshp8ePPj/RFQjbg7Lv7940dCAB+/f0jXv/wfgsmEXKa0BcJ2YyzXx4/tk784fHPDk0h5LShLxKyGZxDI4QQchScA8B//qlnDv79Xx/w73/8rfbYl9/6WzaPkNNin30xsBXo8CHGg73VE9gK9JmLcDqCugXbyH7DNzRCCCFHATs0Qo6SALaiwA52bQchT8c5EA9h5JE9RgjpDvoiIRvwX6//R+S5+u//lTpWTBsK14AAFj9L+KmzvgUBwxVh6AoDqessPyNF9johfGGlzhdOE3JAdOWLoWukfDD+GW4oaUXWp2C4YpHSt2IfzMrP+nhiQNZvUzKa6BHpvyXzIN92VLdVtW2LVB7JU9PpkGM0eQvcCgghIEQI13CgDyeI0hd5JrRr4FYk14UuDEeHkh8bqb0ugK3omLlhok/g8iGni5ATRB1NIYQPC4Dlx74xHUkskQhsKDmfErfAu7RrOjqucZuc92Eh5+OBDUW7w1WYagdgQstfU6cnIZoMoTtxPqTyAKxtO4aTVetQ3VbVtC0yeSS7ods3tBy+lXnyiZ+0ik908RNfw+uSJyS+lZFjoVtfjN8w5P0jeWOpSLB8+0mnyvhuLKP8bcYQ8QuWpB7LT9qPJm+X8m1MSULJtkUmj2RXdD6HFtgKdCd9xMpeYFwUltOqvT6AGR4iYKDKXvcSVwZg6gocg8t0yXGwszm06B3uPMC6qVkq3++t97NEhucpcEpO9yMAkNQze4Oh48FwQ/k3swWSbczatqqqbZHJIxuinXEOQOo7l/JvX/5P6q/4Nd2BBV+MMQDiV/PsZzUdomI0FRhFEww1E5piAuzYyIHTjS/uFssXWPsJWcMxOe/uHaJR1z5d11bVty2VeSQ7o7s5tOAeDgy4YVJBAEQPs+J13rxQp4N7BzCu8FJtcZ06wlQICN8CPBNvuUyZkOaoPfQBzB42mAWSkSGrp3+DaejC8ExoTb89qGs7ZNuqsrali3IiW6Pj79A8zBf3OZrg2vRKrnGgpytoYMeTvjf5p7Ca66IJ7Em+Uhm44OsZIUvkG94BXrkGPFPLfrsW2A2+ZVsjI5pguDzQQI86iju1skVjlci0MRVtVWXbIpNHsivOXzx/VrptTtkQRv7YF5+lwlUMxgjdGTQ9GVs2XIS+BS0/5Gi48C/eQEmNRZa+vtddp45wOVegKMsEcMMpmg63E7IvdOaLAIABxr4FRdcQj5jVz0WpoylEz4aip+aHLB9iLJ8HdTRFiOGqHQCS4bpB5hppPeoIU38ORdehyG5pVdd21LVVNW2LTB7JblCEEOKplMnus8b92AghhDSFW18RQgg5CtihEUIIOQrYoRFyEsSbFStlv4PZ4eIY8kC2yZPOoRFCCCHb4vzHnx/xzfc/4bc//mqU8NNnn+Drrz7Hi+f51VWEkDbQFwnZjLPv7t83diAA+PX3j3j9w/stmETIaUJfJGQzzn55/Ng68YfHPzs0hZDThr5IyGZwUQghhJCj4BwA/vPP7HYe8huiFnc12Af4YTY5VPbZFwNbgQ4fYsu78m6ih75/2vANjRBCyFHADo2QoyT+Zov75ZJTovMAn4SQ9tAXCdmAbsO+i2X4cix+qZDtcRj0fPjyOFR8NiR7cqxERp0OIcpCxWflyYelJ+Tp6MoXF36W/hluWEhTznrf863YT7PyLVFwpxr/lNUj0n9L5mHp+3kbCk4fCtdART5q2gypPFbb6C/K0XBFmOjL5zHbliU2y9yDE6XbIcfAhqLd4SoUEEJAiBAuTGjJtjTqaArfApw3i21qIkyGOhwrNQEc2FAUHTM3TGQIiFvgXSCno8Qo2Dl5lw/cJoccL+poCiF8WIjDpgghakPHAKj3PQBwdFzjNjnvw4IDPe17Mv4poychmgzjWGa+ZB4AwDOhXQO3C9lJTLVhKsZZNHkL3KZsNNL5qGkzGrdB5Tbq85s4fdMFLGX3gGPLMd29ocVPD+VPMoZYPXisnkTip4z008XqCaQcOR2Zp5rkSYpvZWTf6Xa0JPYz+Xpf53tlIx8i58My/impx/KF8K2Gb5eLt7niG0uxrSkkXJ2vbDNk27mmNjZ4Q6u8B6dNd3No0TvceYDnpYLepehHAJKIr+PQxVDToOXCoC9kWDdrlutK60ihvsSVAZi6Asfgcl6y3+xsDq3O9xb0e+v9R8Y/Ialn9gZDx5MKTFrAuCg2A70+gBkeImCQnAxsBXrGUCu5uKLNaNMGSdooTdU9OHHOAUh951L+7Usxkm5p9OmOaaZDxWgqMIomGGomtDh8Lzs2spd06Yu7otI/G471e3fvEI269tV4SNGBBV8kD9SBjVWA6/o24ynaOdKc7ubQ1B76AGYPdTU2wuTaBNwQoQuY16lx5zoZ0jrK0o4wFQLCtwDPxFsOOROyYhPfaiJDVk//BtPQheGZ0JrOD3nzQr8Z3DuAcYWXKoDgHk5udCh6mJXYWtJmdFFOpai4MABvztn9TehwUcgAr1wDnqllv32JJhimDgS2BhMubkcq1NFtPJm6PL9GRmAnf8vpyBBNYE/ylcTABV/PyAkg3/DW+d4GMjL+2UCPOoo7NUeH0qhTyy2SCOx4YclN+k3Pw7LviCa4Nr2MvevbjBZtkBQqen0Azj2WUhK7iTznL54/K902p2wII3/si8+y4SrU0RQhhtD01Piy4SKcxs9B8Zi1ATdcVCwVo1sXd5oOJdnqRh1NIXo2lLQMy4cYy+kooI5wOVegKMuL4YZTNB2WJ2TbdOmLwABj34Kia4hHzOrnoup8TwYZ/2ykRx1h6s+h6DoU2S2tDBf+xRsoqzHE7BDhYIzQna1sNFyEvgVtcXlNm9G4DZJkMA7hzjToirMwGr7lQC95eSTlMMAnIYSQo4BbXxFCCDkK2KERQgg5CtihEXISxJsVK2W/Jjtc7JRDyMMh2Hi8cA6NEELIUXD+48+P+Ob7n/DbH381Svjps0/w9Vef48Xz/OoqQkgb6IuEbMbZd/fvGzsQAPz6+0e8/uH9Fkwi5DShLxKyGWe/PH5snfjD458dmkLIaUNfJGQzuCiEEELIcbDNAJ+GG5aGnDg6TjHPpHM698WOyQfePHQ9tTbQhw+Ojt/QAthavPGwEALTEVC25+dxcYp5JoSQ/eO8U2nRA2YwcPVysdtaEoahUyV7xinmmRwAcYgUMMwJOSG6C/AJANEcHoCrTkw7EE4xz2Rr7CzAJyHHQFfj9nFY8fQvDkdeGkLc8pOw4YtrS8KHp+algDbj2XFI87Xp8/ILIdfrbZXL8/LizLWG69eGoienRVe+mK2vq7ldOdb7zWJuqxvfrdcj0n93lIdS+wq+n/fhWF5ef97PS8snOb++zBq0iaSWzubQBuMkEB4MuKGAEBUhWhwd17iFEAJC+LBK4hcp2h2uQpFcE8Zx02S3jglsKIqOWTKvJYSAuAXeBanzmom+L1bnQxczXcEwHwepwlbZPEeTIRTdgZXSdzPXkQ7BREhXqKNpUlexrHN1oWMA1PsNUO4Pab+U8V0ZPQnRZBjHMvM7ykMT329DunwWAUoVBdr8Zn17l0+37hpST6crq3xr+ZayOlTyhpZ7YoqfTBZPJPE1hReX0BVGTnY5Yc2bT/nT1jo7qm2VyfM6fXV2klOj21WOcb2Tr1719bFs5KG570rqsfzlqIb8m1lXvr/BG1qufOK3y+zbVvM2kcjS7RyaLP3e+iB90TvceYDnpYLnpZNGQGWEvyS9dbNmJjx6wAxAv1cUovb6AGZ4iIDB4nSVrTJU6CMkz87m0Or8ZsGmvgtJPbM3GDqeVGDSvP7OfL8NZeVjXGSOqRcGkF8JvWk7QwAki0L+/Y+/ZQ7+/V8fpI6VRdLtCours8gJso++2JRK3204qufdvUM0kohSTQj2cacQtYc+gNlDy/HsuvQV56OHGYA+On2ZWqsvwpxzaGRf2NTvZGXI6unfYLqYg5KdS9qa76u4MABvzuAv+87+dWgY4JVrwDM1ZOpxNMFQqmKvSR/Yyd/rz2umB8sfo9sXwwEuLcAzr5Gecw5svXRYhpAuke+g6vxmAxkZ322gRx3FnZqjQ9mp76vo9QE49whSaXQ68N5x/uL5M3z5rV84UTaEkT/2xWfbCVehjqYIMYSmp8biDRfhVK6rUUdTiJ4NJZ3e8iHGFeeTlYqyw/VNGIwFfCjQNQXm0pwQ7kxb/k1It744wNi3oOgaFBNSc1F1fiODjO820qOOMPXnUHQdysxFOK0eftyW7w/Gsb/qirOU6VsOdO4KtFcwwOfOiDAZajD7PgQnCwkhZGP2cMjxRFisyLpkZ0YIIV3ADu0JiCbD3Eeb8YbGnuHiFfszQgjphAPs0ALYigKl7Ce7k8gTo46muJlrKVt1OJYPUTMfQEh3HJ7fFDmGPJBtwjk0QgghR8H5jz8/4pvvf8Jvf/zVKOGnzz7B1199jhfPt7PSkZBTg75IyGacfXf/vrEDAcCvv3/E6x/eb8EkQk4T+iIhm3H2y+PH1ok/PP7ZoSmEnDb0RUI24wAXhRBCCCEldBmyojSwZYd0LX/b9hLShG7Dx3RPPvDmoesp1cv24KA5oDe0CA/cZoYQQsgaDqhDUzGaCn67RYgU8TdbDHpMTondBPgkhJRCXyRkA7Y+hxa6wgAEUr/S4fEk3PriZ7h+IZx6aehyy0/ClS/Syoct37a9hDShK1/M+sOifsrODPnCSqdN+cdibqvW3/I+VDovVa9HpP+WzMPCp/2FjYYrwkRXPn3e/6XaA86x7TXbHXIMbCiaib4vIETyC13MdCWzt2E0GULRHVip627mOkyZAJiOjmvcJul8WHCgtx1neQp7Cdky6mia+AKWdbQudAyAuP4rOmZuuKr/t8C7tDuV+Vt626nAhqLd4Spc+EYIFya0/DV1ehKiyRC6E+dDKg8A4JnQ5zex3E2mKGTyQvaKLXZoAWzdgeGG2XDs6gi3rgHPfJsEywvw1vQK1w3GIVxDQo3h4nZZ0eMAfplAfPtmLyF7SYTJGwew/GzHoY4wSvtDmb9586SBj2VY/jQVW0zF6NaF4d3hXdRAD7AMvFnwyVos+BuHZJLJC9k3tjeHFj1gBqBfEtNc7fUBzPAQAQOsv06Kfq+bRSJPZS8hFexsDm0RzuimpiOo8rdEhucppdHY+xEASOqZvcHQ8aQCkxYwLjZvE2TywiZg7zgHgH//42+Zg3//1wepY2WRdAkh7TkGX7R8sf6NquGbjXf3DtFodyubK/NC9o7tDTmqPfQBzB6KNTh6mAHoo6dWXRdh/pRzUodmLyFdUlH/O5Uhq6d/g2nowvBMaBt/e6DiwgC8eYO8dVEe5MnZ4hxaPL7umVr2W5hkXNzyxxgk111agGdeIx0DM7D10ld92kuIPPIN8vr6L9+frJERTTBcHmigRx3FnZqjQ9moU1PR6yM7tx7Y0CsdViYvZN84f/H8Gb781i+cKBvCyB/74rPqcBXqaArRs6Ho6XFoA24okB4WH4wFfCjQNQVmcszyQ7gzbfn3U3Bo9pLjoltfHGDsW1B0DYoJqbmo0vpv+RBj+TyooylCDKGlZRguwukgc420HnWEqT+HoutQZi7ClqsWB+PYP3XFWerzLQd6xe5DMnkh+8UeB/iMMBlqMPs+xEEMYh+avYQQclzs79ZXi1VXlwfSORyavYQQcmTsRYcWTYaZD5eBALZmwjNcvNrD/uHQ7CWEkFNgLzo0dTTFzVyDoijJT4dj+RtuRBxvzqqU/Tb80n879hKyTbbnD0/HMeSBbJM9nkMjhBBC5Dn/8edHfPP9T/jtj78aJfz02Sf4+qvP8eJ59UpHQogc9EVCNuPsu/v3jR0IAH79/SNe//B+CyYRcprQFwnZjLNfHj+2Tvzh8c8OTSHktKEvErIZe7EohBBCCNmYrQf47JDW8lNB+uQDHRLytHTpi9sgH3jz0PW0YfM2LglMXBdYlLTifNcdqjwRHiq2qVlP/I0Y3BCiaRgKQgjZKm3bNVLGAXVoKkZTgVHTZNEDZjBw9ZKdGTklAtiKDjD8yZZpWs75dqxlu0ZK2V6Az30hmsMDcLVrOwiR4Kh9kZBts/U5tNT81eJXOjzuW5lrDNePx5pTF2flh8vzoWuk0lrCT1+f0W2I5RSarF2EPBFd+WLWH5rOHfvCSqfNz/VU+FvKgKxvlc4P1esR6b9TeVi0A/7CjrT8Wt1ZvSs18fF8OeXbtPTfbcu5SmaSibhtKy3j+nbvlNnuKsfAhqKZ6PsCQiS/0MVMVzJ7IUaTIRTdgZW67mauw5QJmOnouMZtks6HBQd6Eq9oMBYQvoVFCBghpnEYGEm7CDlE1NE08QUsfaoudAyA2C8UHTM3XPnFLfAuHf6rzN/S204FNhTtDlfhwrdCuDCh5a+p05MQTYbQnTgfmTx4JvT5TZx2seVcre54eDCt9/Kh/ZZZrcu5hmjyFrhN5cHIlTFQ2e6dMlvs0ALYugPDDbNjy+oIt64Bz3ybBNsL8Nb0CtcNxiFcQ0KN4eJ2WYnioHyZQH6t7SLklIgweeMAlp9tlNURRmk/KfM3b540trEMy5+m4geqGN26MLw7vIsa6AGWwXULvgoAsOBnDkrojh4wA9DvrfQORvu3/6o6GmfzcGOlyjihcbt3GmxvDq2k8ixQe30AMzxEwADrr5Oi32tWIWXt2rdaTk6Cnc2hLcIf3dSsbKjyt0SG5yml0dv7EQBI6pm9wdDx1gcmNS6ydsjoHrzElQGYugLHaB8s9CkIbCUXUdvKXtC03TsRzgHg3//4W+bg3//1QepYWSRdQkh7jsEXraoVfw3H97y7d4gavEVV6l6sKIwmGGomtDiU9551bPGwqAMLvhhjAMRDqfqu7ToMtjfkqPbQBzB7KNbg6GEGoI+eWnVdhLnMHNq27CLklKjwi05lyOrp32AaujA8E5rM3FAT+9URpiKZX/dMvA0AQMWFAXjzHc+hB/dwYMANk84Mi3aJyLDFObR4XNczNWTqYzIubvmLGzbApQV45jXS6zECWy8dOng6uwg5fOQ7qPV+Ib/WYI2MaILh8kADPeoo7tQcHUqtERK6ownswqIvAxcqAKjo9ZGdhwrs3LDfejZ6ECjgYdmvRhNcS62OIwBw/uL5M3z5rV84UTaEkT/2xWfV4SrU0RSiZ0PR0+Pa8YrD9LD4YCzgQ4GuKTCTY5Yfwp1py7+7RNYuQp6Sbn1xgLFvQdE1xCNra+aiUpT6heVDjOXzoI6mCDGElpZhuAing8w10nrUEab+HIquQ5nFw4OtdasjXM4VKMryJNxwtYhkMI7bHF1xljb5lgO98gWpeTlXMhgjdGerPBguQt+CxiFHKfY4wGeEyVCD2fchuNUBIeRICGwFOtiubYP93W1/serqkjedEHIsxHs3GhccCtoGe9GhRZNh7oPmeENhz3Dxiv0ZIeRYCN7C9Li37LbYiw5NHU1xM9egKEry0+FY/moHAELIhgSwl/6V++V3oSAbUFHOipLsiDTlXP2W2OM5NEIIIUSe8x9/fsQ33/+E3/74q1HCT599gq+/+hwvnlevdCSEyEFfJGQzzr67f9/YgQDg198/4vUP77dgEiGnCX2RkM04++XxY+vEHx7/7NAUQk4b+iIhm7EXi0IIIYSQjekywOfhEBaChx4ypYFVycGx776YD7x56HrasLmvJW1PZYDP7SJTvofapvANjRBCdkb8ofV+sY82yXFAHVr8fcfugrLuWj8hTWB9fRqalnMcwmb1jW3+731gH22SY3sBPgkhjaEvErIBXY7bL8ZmQ9cQAOJfMg6bOQZLFEZwQ1cYy/PZ8dts2vhnuMuz8Zh0lWzfyqa33JI5tPVyNtZfiS+sNfkuLRdA5Ie/s+PdsbyVfWXXtL1Xq7nH2vtJGtOVL1bX1zrW18fSOtPQl5voEem/U3lY1GV/YUdafq3urN6VmgZ+U+on8uVcJTPJREWbsrkPytzHok3rym2/6H7I0dFxjVsIISAWAfoUBdr8Jj4mfFhwoKff0QMbinaHq1Ak14RwYUJLtuRRR9MkXRyRVgixDNEQTd4Ct6l0hgM9vZVPYCfbzSyuEfBhIh9iqErORvqrCGwoio6ZGy5tE7fAuyB1XjPRT9kuQhczXcntfdmSNvcqn27dNWRnVNXXSurqI1B+7/P+VuHL0noSoskQuhPnI5MHz4S+qKeLobFa3XE06LTey4f22361LucapNqUTX2w7j5m6Lbctkrnb2i5J6L46aqq94+fOAo9fugKA4ZYPfDETwi1Twa+ldJX/tQltcoxI6et/irqbFhn++LJcKWj9Rtay3uVT5e3h7Sj21WOkvV1Sb1PlNWZ7L2X8WVJPZa/HFkprcuF+iahO3l7K1fd1m+alrOcL+YSFMp4Ex+sv4+5ayrLbb/ofg6t3ytOJBoXmWPqhQEsVtEkYWI8TymNUN2PgLqZycBWcpFlrUT2A2YA+j25p6a1craRbhEe52ZNOIEK29VeH8AMDxEw2OSBsOm9qkpHOmFnc2h19XFB1b2X8WVI6pm9wdDx1gfMzNVTKd2Dl7gyAFNX4BhxsNB9rce1bcqmPtgkvXo45XYOAP/+x98yB//+rw9Sx8oi6bbF8gWax7uLX4UdWPDFGAMgGWJ8Kjld6SckZh98cVMqfbnhOJV39w7RSL4BrW5H4tV7o2iCoWZCi0NM71kDvY9tyiGUW8zul+2rPfQBzB5ajMgG93BgwA2TGw8gSn9AsVZ2hHl6Dq1OTlv9VdTlu+J8rKOP8hdPFRcG4M33coSb7Cub+GETGbJ6+jeYLuZ1ZeaGmtivjjAVAsK3AM/E2wDYG7/ZpE3ZNqXltl/svkPDAK9cA56pZb/liCYYllTkYoX1sKyD0QTXmdUeA1xagGdeI72GIrD1kmGJKjlt9VexJt+Bnfy9/rxmerD8VYXPoqLXB+DcI0il0cvGYcjRI99B1dXHDWRkfLmBHnUUd2qODqXWCAnd0QR2YTGVgTh49GZ+s9GDQIG2bcqWqCy3/eL8xfNn+PJbv3CibAgjf+yLz7oJV6GOpggxhKanxr8NF+E03WQPMPYtKLqG+I03xHQ0RujOVukMF6FvQUu9ng/GAj4U6JoCMzlm+SHcmbb8G4N6OW311+Vb9Gwo6XxbPsS44jwMuKGoDBA4GMf50xVnKdO3HOh78qBHyunWF8vqa3ULVFcfZZDx5UZ61BGm/hyKrkOZxcNcrXWrI1zOFSjK8iTccBVss53fNC/nSqTaoiemptz2CQb4JISQJySwFejwIZovGiA17MGQIyGEnArxPonGPo7XHQHs0Agh5KkI3sL0DFy9ZIe2DdihbY1401Kl7Ce7kwghncH6+DRUlLOiJLsWbXP+6bTvM+fQCCGEHAXnP/78iG++/wm//fFXo4SfPvsEX3/1OV4872alIyGnDn2RkM04++7+fWMHAoBff/+I1z+834JJhJwm9EVCNuPsl8ePrRN/ePyzQ1MIOW3oi4RsBheFEEIIOQ66DVlxKEiEj9kZ+2xbV5xCHpuz776YD7x56HraUBvq5QnZJ1v2Bb6hEULIwRF/oE2yHFCHFn9fsbvAyLvWX8U+20Z2A+vE07Crco5Duog9DOGyS7oP8EkIaQ19kZAN6HLcfjH2HYfzRvxLxngzx8pChSdhvvPpRCEtcmHZk/mYKtlJKPflz3JL5nDWy9lYfxX7bFsSXr7sniTKs/dsXZh2qTyWyDux+YGufLG6TtSx/p6X+ndDX26iR6T/TuVhMXfkL+xIy6/VndW7UhMfz5dTfp4q/Xe7cl7NH29ajpxDK9J9h5a+qekbsqw5SYVKN2a+JQBDrOpCctMzNytOV2wDrep0SWOaVZe3SUJOW/1VHIBtGQcNXeH62fPZfje+35k0knmUqwPHTbeLQsrrRCU197zg3wtfLvhbzX2U0ZMYvmj0a+uPlO5ip+W7688tda3p0NJlIF/Oq4fMQjk29Ad2aEW679DKniJyTx/Z6+IbVagQoSuMzA2VrDi+ldJXXkmlVtll5LTVX3nhHttWZ8M62xcNUNPyl60Dx81uO7T6elfm39n7LXMfJfVYfnnHJ8rbFCndyQNXueon7tA2Lkd2aGV0P4fW7xUnKY2LzDH1wgAWK3Sid7jzAM9TSqJIA/0IqJv1DGwlF1nWSmQ/YAag35ObNl0rZxvp9tq2+J5YN2viNVXYrvb6AGZ4iIABJPPYQR04FnY2h1Z3zxeU+XdORuV9hKSe2RsMHW99wMxcmyKle/ASVwZg6gocIw4WurNqtWk5nog/NOUcAP79j79lDv79Xx+kjpVF0m2L5Qs0j3cXwFZ0OLDgizEGABDYUBpHd20rpyv9h2pbt7SrA8fFPvjiplTex4bbvXt37xCN5Due6joUrwwcRRMMNRNaHGJ6tx1bBfSH5ux+2b7aQx/A7KFFYIPgHg4MuGHSYAOI0h9nrJUdYe41kNNWfxUHaVv9+VhHHz216rpcHjepA6QburgHMjJk9fRvMA1dGJ4JTWZNfBP71RGmQkD4FuCZeBsAgIoLA/Dme1AH6Q+t2X2HhgFeuQY8U8t+yxFNMCypyMWb7GFZB6MJrs10SznApQV45jUmqWSBrZe8ylfJaau/iv22rfSeBHby9/rzmunB8hedqGwem9UBIo98o1h3zzeQkbmPDfSoo7hTc3QotUZI6I4msCf58jAQB49W0esDcO6xTB7YueH69XTb+dAf2nL+4iemTdgAACAASURBVPkzfPmtXzhRNoSRP/bFZ92Eq1BHU4QYQtNTY8aGi3Caft8eYOxbUHQN8UhBiOlojNCdrdIZLkLfgpYaVhuMBXwo0DUFZnLM8kO4M235Nwb1ctrqr2KfbVNHU4ieDSV9TywfYlxxHgbcUGSCF0rlEbJ14Ljp1hfL6kT1wFrdPZdB5j420qOOMPXnUHQdyiweHmytWx3hcq5AUZYn4YarYJuDcVwvdcVZ2uRbDvTKgY3m5SwD/aEdDPBJCCHkKNiDIUdCCCFkc9ihEUIIOQrYoW2NeNNSpew3nDRdvXxCtpHtwHv+NLCcdwnn0AghhBwF5z/+/Ihvvv8Jv/3xV6OEnz77BF9/9TlePO9mpSMhpw59kZDNOPvu/n1jBwKAX3//iNc/vN+CSYScJvRFQjbj7JfHj60Tf3j8s0NTCDlt6IuEbAYXhRBCCDkOug1ZcShIhGjZGU9nG8NP7Bf77ov5wJuHrqcN++QzTWyRKdN9yltb+IZGCCEHRwTZvcZ3I283HFCHFn/fsbu9OXetv4p9to3sBtaJp2FX5RyHwhGdhb7pWt5u6D7AJyGkNfRFQjagy3H7xThtHE4c8S8Zk80cK4RPF8vw6Pl0opAWubDsyZxTlewklPvyZ7kl81Tr5Wysv4od2rYcM8+XfTH2e00e4zD0i/PloePL7y1Z0ZUvVteJOrL3Mn2vSv27oS830SPSf6fysKi3/sKOtPxa3evqanw8X075eaX03+3KeTVHvmk5tplDq9JZlFfj13tI9x1a+qamb8iyNJJCSpeObwnAEKu6kNz0ksLNF2roWtXpkg4jq67YcNfKaau/ih3bttRV0iCkHbNaTrEh8N18+dfdWyJE14tCyutEJUl9zDTKoStcf3E632gnvlzwt5r7LaMnMXzRANf5iJzuqrravENLl4F8Oa8eDgvl2LBNbNyh1dy7rLwav95Tuu/Qyp4iKp8E4htV/lSfvqGSFce3UvrKK6nUSsKMnLb6Ky/cuW1l90aIRSNSkYe0nKQDLNcte2+JELvu0OrrXZl/Z+uKzP2W1GP55R2fWFdvJXRX1tUn7tA2LscWHVqlztw1lWW1v3Q/h9bvFScVjYvMMfXCABYraqJ3uPMAz1NKIjUD/Qiom6UMbCUXWdZKZD9gBqDfk5vmXCtnG+n2xbbcvQEAtdcHMMNDBAzUGjnqS1wZgKkrcIw4AONSXgf39tTY2Rxacq+sm5oAkmX+nZNReb8hqWf2BkPHWx8wM19vZXQPKurqU7NpObYxvEpnniq/3mPOAODf//hb5tfkWFdYvoAQxd+4st7HK4x0x4K/SOPLNfTdyOlK/z7bVicnWR0VujA8E1rJruLt7u1psg++uCld3m/v7l2jHeqrddfX1X1it35zWGW1YPfL9tUe+gBmDy2KKriHAwNuOMbiHkfpjynWyo4w9xrIaau/in2xzZsXKmlw7wDGFV6qDeSoI0wXnZ1n4m1QlUeyd3Rxr2RkyOrp32C6aExl1sQ3sb+srkLFhQF48z2oq/vkN6Vltb/svkPDAK9cA56pZb/liCYYllTk4k32sKyD0QTXZro3GODSAjzzGpNUssDWS17lq+S01V/FvtjmQE+Xc2BDdwDrJj3EUCEnmsCe5PUauFDjPDa5t6R75BvFNfcqsBt8YyVzvxvoUUdxp+boUGqNkNBdWVdV9PoAnHsskye+IEO3nc8e+E1lWe0v5y+eP8OX3/qFE19++39qj33xWTfhKtTRFCGG0PTUmLHhIpym360HGPsWFF2DYiIZWx8jdGerdIaL0Leg6alUYwEfCnRNgZkcs/wQ7kxb/o1BvZy2+qvYC9sMF/7FGyjK6oTlp4Y16vSrI1zOFSjKUiDccIrFtIfcvSUA0K0vltWJ6tZIHU0hejaU9L2yfIixfB5k7ncjPeoIU38ORdehzOK5nNa6a+rqYBz7nq44S5t8y4FeOSDSvJxl2Lnf1JTVvsIAn4QQQo6CPRhyJIQQQjaHHRohhJCjgB3a1oiXuytlvwNY/kqODdbHp2EX5cx7u4BzaIQQQo6C8x9/fsQ33/+E3/74q1HCT599gq+/+hwvnnez0pGQU4e+SMhmnH13/76xAwHAr79/xOsf3m/BJEJOE/oiIZtx9svjx9aJPzz+2aEphJw29EVCNoOLQgghhBwH3YasOBQkQrTsjH22rQnHko+n45B9cdNQJoR0Ad/QCCGEHAUH1KHF31rsbk/bXesnpAnbqq/0A7K/dB/gkxDSGvoiIRvQ5bj9InR6HNob8S8ZK88cK4RPF8uQ3/l0opAWubDsyVxNlewklPvyZ7kl8zvr5Wysvwop26rLZ7Oyr7J/NQ9We/9k80HW0pUvVtfXGlr64cZzaHm9gCitOrl6Zrg+6xlZ0n2HlnaedCVdVjhfWMhVQN8SgCFWPpc0pJlKH6crtvNWdbrEAbLq8jZJyGmrvwpJ22TKp23ZV9u/6uxWDeK6+yeRD1JJt4tCyutrJRv44UYdWkn9WdTfdEe86FBZz8g6uu/Qyt4cck/02etipynUx9AVRsa5JB3Ut1L64jTFp1OJFXgZOW31V14oaZtc+bQr+zr7yzvouGHpoIxJht12aJv5YfsObV39YT0jzel+Dq3fQyEGnHGROaZeGMAiaF70Dnce4HlKSaRmoB8BRYFZAlvJRZa1EtkPmAHo9+Si0q2Vs410srY1KZ+mZZ9Qa3+Z3KV9zcqYVLOzObQO/LCd3vX1R+31AczwEAEDsJ6Res4B4N//+Fvm4N//9UHqWFkk3bZkoiRLE8BWdDiw4IsxBgAQ2FAkI0ZvLqcr/fW0K586ns5+IseufXE79YyQp2H3y/bVHvoAZg8tghwE93BgwA2TxhhA9JB6/VgrO8LcayCnrf4qZG3bpHzq2MT+BbL5IPvNNutZS71xXeyjp1Zdx3pGVuy+Q8MAr1wDnqllv22JJhiWfOxSrNAe5otD0QTXZrp2D3BpAZ55jUkqWWDrJcMqVXLa6q9C1rZm5dOctvav7JMvY/LUyHdQm/phW9boDWxopgfLXzxssZ6Res5fPH+GL7/1CyfKhjDyx774rJtwFepoihBDaHpq/N5wEU7TYx8DjH0Liq5BMQHDDTEdjRG6s1U6w0XoW9BSQ2aDsYAPBbqmwEyOWX4Id6Yt/8agXk5b/VVI2SZdPi2Qynd3+SDVdOuLZfW1ev6pvR9uNq+ljqYQPRtKWi8MuKFAWjTrGamDAT4JIQdMhMlQg9n3ITj5d/LswZAjIYS0JFmdaV2yMyPs0AghB0I0GWKYnkBDAFsz4RkuXrE/I2CHtkXiTVyVst9wgideS0ZOnqeqj9vTo46muJlrKZk6HMuHmI628okcOTw4h0YIIeQoOP/x50d88/1P+O2Pvxol/PTZJ/j6q8/x4nk3Kx0JOXXoi4Rsxtl39+8bOxAA/Pr7R7z+4f0WTCLkNKEvErIZZ788fmyd+MPjnx2aQshpQ18kZDO4KIQQQshx0G3IikNhn0NOFG1rEppj1xySrfvGPvniImAsIYcE39D2nghN9wveHYdkKyHk2DigDi3+vqWT/XgPSr+K0VQcyLc2h2TrsbNrfyHk6ek+wCchpDX0RUI2oMtx+8W4exw6HfEvmU/JHFuGVU8RusJYns/Ow2TTxr9VKPZkzqlKtm9l01tuyRzaejkb669Cwrb8vNS2yjk9f1ctxxdWSka6GEvn0PI6c2nk9R43XflidX0VEvejOIfmWxJyWtUlQrqj+yFHR8c1biGEgAhdGJ4JTVGgzW/iY8KHBQd6eiwksKFod7gKRXJNCBcmtGSrHHU0TdLFEXWFEMuQFdHkLXCbSmc40NNb7AQ2FN1ZphNCwIeJfNivKjkb6a9C0ranKudS2QU5cZTrmRsubb58qMhvYEPRTPRTeRShi5mu5Pblq9NLZKmqr43uR0I0GUJ3YllZOZvWJUI6pvM3tNzTefxkl30qy14XP8kVFlSFrjBgiNUDYfxWULvwyrdS+uI0mafKlM7KVVwZOW31V14obVvpG9pWyjnRnZMdP2EnspOn8nXlkNW5Lo85mTJ6T4BuVzmW1VfZ+5F6Q0tGELJpOqpLhHRM93No/V5xQYBxkTmmXhjAYjVcEv7B85TSyLP9CKhbYRDYCvRMYiuR/YAZgH5PbonCWjnbSNfQtgLbLOcy2UuhL3FlAKauwDFchFULQCryqPb6AGZ4iICBjN4TYatzaE3vx+wNho5XDOLZVV0ipGPOAeDf//hb5uDf//VB6lhZJN22WL5A8/h88fCXAwu+SEK1BzaUhhGX28vpSv/T0a6c08QrGUfRBEPNhBaHLa7u2Ig0++CLeby7d4hGxfu7eV0ipFt2v2xf7aEPYPbQIrBEcA8HBtww6UwAROkPodbKjjBPz1PVyWmrvwpZ27pik3IulTfCVAgI3wI8E2/LpkUqdMbl1EfbF1TSgqb3o3+D6WJ+Nj3v1XVdIqQjdt+hYYBXrgHP1LLfzEQTDEsmj4tO5GG+OBRNcJ1ZUTHApQV45jXS892BrZcMlVTJaau/iia2dUGzcl5LNIFdWDxg4KK0Y1qjM7ChmR4sf/UgQLZDtr62uB/qKO7UHB3KMlFHdYmQjjl/8fwZvvzWL5woG8LIH/vis27CVaijKUIMoempMXnDRThNu9cAY9+ComuIR7lCTEdjhO5slc5wEfoWtNSQ32As4EOBrikwk2OWH8Kdacu/MaiX01Z/FVK2dYhcOdcKweVcgaIsBcANpxitedNSR1OIng0lrRMG3FCsTXOqdOuLZfVVbXc/1BGm/hyKrkOZJcPLXdQlQjqGAT4JIYQcBXsw5EgIIYRsDjs0QgghRwE7tK0Rbw6rlP1kdxIhhBAiDefQCCGEHAXnP/78iG++/wm//fFXo4SfPvsEX3/1OV4872alIyGnDn2RkM04++7+fWMHAoBff/+I1z+834JJhJwm9EVCNuPsl8ePrRN/ePyzQ1MIOW3oi4RsBheFEEIIOQ66DVlxKEiEj3kCSoNhtmI/8kM2Y199sbt6KsNh1uWnLSOyDr6h7YwIsvsYE0IIqeeAOrT4u67d7X3atf44DItg2BVCCOmE7gN8EkJaQ18kZAO6HLdfhG2Pw6wj/iXjypljZSHYQ1cYy/PZ8ehsWuRCwidj7lWykzDyy5/llozTr5ezsf41ZMfdV3MHtWUllR+5Ms0m8YWFw5u/OBa688X4Pq7qaHI0N8+z/DtfT3L3v3R+KJ+mUJeE6M43a+iknifHSmTU6Sgvo6w8utTT0P2Qo6PjGrcQQkAsggMqCrT5TXxM+LDgQE+P3QU2FO0OV6FIrgnhwoSWbBGljqZJujhKrhBiGRI+mrwFblPpDAd6emupwIaiO8t0Qgj4MJEPW1YlZyP9m5TfurKSyI9MmfoW4LxZ2BphMtThWD4EwxCfDp4J7Rq4TeqSKMQ+KyGwoWgm+qk6KEIXM13BMBUrryvfrKSLeh7YUBQdMzdc5ecWeBfI6SgxCnZO3uUDt7t7Ejp/Qyt7csk9mZW9mRSeYEJXGDDE6iEzfuKpfdLxrZS+8idVqZVUGTlt9dddWvKGliu/+AmzaX6alanhhjk9ZBfs5A2t5J7n60I23bo6WExXoCvfzF27WT2v0yenI1NGydsc38qenu7n0Pq94iIH4yJzTL0wgMUKv+gd7jzA85TSSM39CKhbNRHYCvRMYiuR/YAZgH5PbtnFWjlbSldKWfktkM2PdJkOMA5dDDUNGgy4ISNI75onn0PL+SYAqL0+gBkeImCQP1lRB8vSdeWbpXRRzxMZ1s2amt+mfVJf4soATF2BYyQBUVtlkDTlHAD+/Y+/ZQ7+/V8fpI6VRdJti+ULNB/pil/tHVjwRVJJAxuKZMTozeV0pX87tCtTskv2wRe74el84ynqeTMd8QrmUTTBUDOhxSHD2bE9Abtftq/20Acwe2gxwhzcw8k9cUXpj7vWyo4wT4/T18lpq79rZPMjXaYRJtcm4IYIXcC85jj/caDiwgC8ucTd9OaFex7cO4BxhZdlrW9F3Yrrfh89Fd35ZhVd1PM6GZu0T+oIUyEgfAvwTLzd2SdHp8PuOzQM8Mo14Jla9huvaIJhycR0sWJ5WPptNMF1ZkZ5gEsL8MxrpOaqEdh6yfBBlZy2+rtGNj9yZRrYGky4uB2pUEe38UT37j70I52hotcH4NxjeTcDOzf0t6C46Eh3AOtm3dvEmroV2NBMD5afHrbuyjfX0UU9X5+f+O9m7dPinD3JtxMGLvh6tnXOXzx/hi+/9QsnyoYw8se++KybcBXqaIoQQ2h6apzacBFO0+/4A4x9C4quIX6DDzEdjRG6s1U6w0XoW9BSwxqDsYAPBbqmwEyOWX4Id6Yt/8agXk5b/V0jlR/Ul2k8t2HADRcNl4rRrYs7TYcCrnTcBV364mAc1wldSe6+5cO3HOj5AQTDhX/xBkpqLLBueE0dTSF6NpR03YIBNxQYLRptCZ+SrctVdFHPS/Nj+RBjOR0lRuFyrkBR0mUzXZUN2RoM8EnIiRLYCvQZ53bI8bAHQ46EEELI5rBDI4QQchSwQ9sa8WbGStlvk51ECDkZ6EOkGZxDI4QQchSc//jzI775/if89sdfjRJ++uwTfP3V53jxvJuVjoScOvRFQjbj7Lv7940dCAB+/f0jXv/wfgsmEXKa0BcJ2YyzXx4/tk784fHPDk0h5LShLxKyGVwUQggh5DjoMnzM4dAkRMX2KA2c2Ir9yE+ZHd3lcfvs2taT8cVUsEzDDXde7uR44BvazoiwzX2M94NDyuMh2XrIBLC1eKNgkQqUS0gXnO/aAHnicBTYWUiUrvUnISa6ELW3HFIeD8nWAyZ6wAwGrkq38idkM7oP8EkIac3R+2I0hwfgatd2kOOky3F734rnT+Iw5/EY+WJsPHOsLEx7alw9nU4U0q7G3pOz8bxNlWzfyqa33JI5p/VyNta/huzcwWr+qbaspPIjV6bZJHGoeum5OAk78vMj26oj8uWX5DH5pbNaOpeT11koswb3rYbufDHO46qOJkcL+VtfFkKImvJeyfMX+a6ZB/OtbDkChnDDMrua+7Th+nsyj0x2SfdzaI6Oa9xCCAERujA8E5qiQJvfxMeED6skBpOi3eEqFMk1YRyzKNneRh1Nk3RxaAuRGnuPJm+B21Q6w4Ge3hYnsKHozjKdEAI+TOTDllXJ2Uj/JuW3rqwk8iNTpr4FOG8WtkaYDHU4lmToGFk76vLYUR2RK7942HiWzN8IIXD5UHGvAhuKZqKfyqMIXcx0BcN8vKu6+7Z31JSFbHl7JvTFfavZtX8wToJdJqFmhCgPqVLnU9FkWKh7N3Ndru6R46bzN7Syp7jcE1bZm0n502H8BJekElbZU2Qe30rpK39SlVoVmJHTVn/dpSVvaLnyi5/6m+anWZkabpjTU2u5dLmWvqFtpY5IlF/yxrHuHmZ1rstj/p7I3Dc5nvQNrbIs5OpP2X2rxbeWb2aldq1N04FPk6On+zm0fq/4lGZcZI6pFwawWFEWvcOdB3ieUhqpth8BdcGa4iB+6SNWIvsBMwD9ntwE9Fo5W0pXSln5LZDNj3SZDjAOXQw1DRoMuGE62nCV/GblWjRgi3WkqvzUl7gyAFNX4Bg1ccAq8qj2+gBmeIiAgYzeBjzZHFpVWTQp79x964qufJqcFucA8O9//C1z8O//+iB1rCySblvqouSWEw+bOLDgi6QxDmwojSNGt5XTlf7t0K5M95fN85OsZIwmGGomtDj0+F4FuHw6X6wvi93Un/32KbLf7P47NLWHPoDZQ4tZp+AeTu7NIkp/TLRWdoR5ery9Tk5b/V0jmx/pMo0wuY6/CQpdwLyWnPuTtaMrNqkjpfJGmIpkPscz8bZsqqtCZ3yP+9jflwQVFwbgzSXKq6wsui7vJnTl0+Qk2X2HhgFeuQY8U0NmDj2aYFgyqV6syB7mq9liXGdmhge4tADPvEZ6Dj+w9ZKhlCo5bfV3jWx+5Mo0sDWYcHE7UqGObuNJf6mFDE3KtQua1ZG1RBPY+cUcMHBR2jGt0RnY0EwPli85PLsTVPT6AJx7LE0P7OwQXmVZdFTerenKp8mpcf7i+TN8+a1fOFE2hJE/9sVn3YSrUEdThBhC01Nj9oaLcJpuMgYY+xYUXUM8OhJiOhojdGerdIaL0LegpYYnBmMBHwp0TYGZHLP8EO5MW/6NQb2ctvq7Rio/qC/TeI7CgBsuhphUjG5d3Gk6FNSvdJS1oyvk6kitEFzOFSjKUgDcsHyl3UKn6NlQ0jqTFXrb2OCiS18cjON7oSuJ5ZYP33KgL152asqik/Jug4QvPnXdI4cDA3wSQo6ACJOhBrMv+dkJOUr2YMiREEI2JFmZaV2yMztl2KERQg6KaDLMfdgeb3jsGS5esT87adihbY0AtqJAKfttspPIk3DItpPd8TT1Rh1NcTPXUvKTHW726PMLshs4h0YIIeQoOP/x50d88/1P+O2Pvxol/PTZJ/j6q8/x4nk3Kx0JOXXoi4Rsxtl39+8bOxAA/Pr7R7z+4f0WTCLkNKEvErIZZ788fmyd+MPjnx2aQshpQ18kZDO4KIQQQshRcA4A//lndmsL+Q1Ri7saHAb8CJPsJ6fni80IbAX6bL82lCb7A9/QCCGEHAUH1KHF37jsLgjwrvXvilPNNyHk0Og+wCchpDX0RUI2oLuw70kodctPws8j/iWh1TPHysK2JyHh8+lEIW38W4VgT0KvV8n2rWx6yy0J175ezsb617AIPe8v5KfD0FeURzptmL+uLAR9/hpA5C8rs8WvzDfpmu580RdWyb1a1pncdevqhGwdLK2/a2hU5yvqaUZPjZ3kdOh+yNHRcY1bCCEgQheGZ0JTFGjzm/iY8GHBgZ4ewwpsKNodrkKRXBPGsbmS7XLU0TRJF0fRFUJgmsS5iCZvgdtUOsOBnt5mJ7Ch6M4ynRACPkzkw5ZVydlIfx2eCX1RNouJ7prySKfVroHbJF8idGE4OpRC2Zrop/IvQhczXcnth1e0ZVCRb3LoxJGhZ264rBeXDzm/kayDhfpbx9o6L1lPM9mQtJOcBp2/oZU9xeXeWrLXxW845U+Hhlg9ZMZPk2UvIDkjUvrKn1SXb1VVwjJy2uqvu7TsjU6uPMrTLt4m6/Kfv269POl8k4150je05K2m/L5uVgerKE/TsJ42bjvIqdD9HFq/V3xKMy4yx9QLA1gEGkzCPnieUhpxth8BdY99cbDK9BErkf2AGYB+T+6tYq2cLaUDUCibRuWRTwtA7fUBzPAQAQOsz3/mugp55Gl5sjk09SWuDMDUFThGbhn8hnWwlkKdb1hP29hJToJzAFLfuZR/+1KMpNsWyxdo/klYPGziwIIvxhgAyRDjU8npSn+RduVBDp2n80UVo6nAKJpgqJnQ4jDsmY7tUOrgodhJts/ul+2rPfQBzB5ajHgH93BgwA2TzgRA9DBbnV8rO8I8PYdWJ6et/jY0KQ9vXpgnCO4dwLjCS7VaVmxnH5Ivr+SgUHFhAN5cog6pI0yFgPAtwDPxNsBmPtmGtvX0qe0ke8/uOzQM8Mo14Jla9lunaIJhycdPxcrrYem30QTXmdUeA1xagGdeIz2vHNh6yRBFlZy2+tvQpDyKi2t0B7BuFk/Za2QFNjTTg+WvOuI62GgcEip6fQDOPZa3PakbS6IJ7MJiCwMXKtDUJzenbT19ajvJvnP+4vmz0m1zyoYw8se++KybcBXqaIoQQ2h6aizccBFO09V4gLFvQdE1xKMjIaajMUJ3tkpnuAh9C1pqyG8wFvChQNcUmMkxyw/hzrTl3xjUy2mrf3vlER/zL95ASY1x5odf1NEUomdDScuCATcUkFuwWJZvvtZtgy59cTCO67iuJHfd8uFbDvTFAII6wuVcgaIsUhhww+myTkjXwY5oW0+f2k6y3zDA54HCPe0IISTLHgw5EkIIIZvDDo0QQshRwA5ta8Sb+iplP+5iQI4S1nmyWziHRggh5Cg4//HnR3zz/U/47Y+/GiX89Nkn+Pqrz/HieTcrHQk5dbrwRUVRIITY+38J2QZn392/b+xAAPDr7x/x+of3WzCJkNNkU19Mdxb7/i8h2+Dsl8ePrRN/ePyzQ1MIOW029cVD6CyU1YdvhHQOF4UQciQcQmdxCJ0uOVzOAeA//8xubSG/IWpxV4PDIMJkqMHs+xDc1fTJCGwFOljmVWzii4fQWXAOjWwTvqERciTwDY2cOgfUocXfuOxuz9Fd698VbfJ9qmW1Ww6hsziETpccLt0H+CSEtGYTXzyE4bx9t48cON2FfU/Co1t+EjYd8S8Jl545Vha2PQkJn08nCmnj3ypcexyGvVK2b2XTW26cJhO7fb2cjfWvYRFO3l/IT+W5qjzSacP8dYV49CWyUAxbX2aLX5nvcqrKqrR+NKwLa+V0UM92TXe+6Aur5F4t60zuunV1QrYOFuvverkA1uafkE3pvkNLO1LaIZa1Oqns6VruWwIwxMr/kk6ixPnyThe6VnW6pDPLqis2/rVy2uqvoMwO2fJYpi3rBAtlm7M7uS7d4K21ZU2+a3JWmqZQPxZ1oXC/5PK+nXq2Ozb1xVVnIdOhFa/x3Xb3IVtnauQSskW679DKnuJyT8rZ62JHKX86TDuUZMPqWyl95Y69dM4qYRk5bfXXXVr2FiFXHuVpF28odfnPX7deXucdWq5+ZO1okPet1bPd8aRvaMlDQPl93aAOVsrlGxrZLt3PofV7xfhcxkXmmHphAItAg9E73HmA5yklUaSBfgTUBfwKbCUbjRdWIvsBMwD90vjtDeRsKR2AQtk0Ko98WgBqrw9ghocIGGB9/jPXVcjrnLL6saBJ3ndQz56CJ5tDU1/iygBMXYFj5OLqbVIHq+SCc2hku5wDkPrOpfzbl2Ik3bbkIy3LEcBWdDiw4IskTHtgQ2kcMbqtnK70F2lXHsfBNvO+7+W6HPQbPQAAIABJREFUiS826yxUjKYCo2iCoWZCi8ORZzqgdmVVLfcQFq6Qw2X3y/bVHvoAZg8tgksE93BgwA2TzgRA9DBbnV8rO8LcayCnrf42NCkPb14IyRHcO4BxhZdqtazYzj4kX16fhk3qwi5l7wmrJfEqLgzAm0vkVR1hKgSEbwGeibcBuimrMrngGxrZLrvv0DDAK9eAZ2rZ75aiCYYlHzIVnczD0m+jCa7NdE81wKUFeOY1Jqlkga2XDKVUyWmrvw1NysOBnj4W2NAdwLpZPGWvkRXY0EwPlr/qiOto07g1T9OsLuyP7P1g1Vmo6PUBOPdY5iypG0uiCexJ/v4YuFCBjcqqUi6/QyPb5fzF82elW1iVDSfmj33xWTehY9TRFCGG0PTUmL3hIpymm9sBxr4FRdcQj2KEmI7GCN3ZKp3hIvQtaKkhv8FYwIcCXVNgJscsP4Q705Z/Y1Avp63+7ZVHfMy/eAMlNcaZHyZSR1OIng0lLQsG3FBgJPV2VpbvuoRt0qzslcp7C7Ypuws29cX0cN5gHNdxXUlyavnwLQf6YgBBHeFyrmDVvxhww+myTrQuqxq5fEMj24QBPg+UwFagz4qT7oTsM5xDI9tkD4YcCSFdcAjDeezMyDZhh0bIkXAIncUhdLrkcGGHtjXiDXqVst9wUlideDgca74On0PoLA6h0yWHC+fQCDkiFnNU+/4vIdtA+f+i/yu++f4n/PbHX40SfvrsE3z91ed48byblY6EEELIJpx9d/++cWcGAL/+/hGvf3i/BZMIIYSQ5pz98vixdeIPj392aAohhBDSHi4KIYQQchScA8B//pnd2kJ+Q9TirgZPT4TJUIPZ9yH2edfZWtrlgx9YE0JIDN/QCCGEHAXs0AghhBwF3Qf4JIQQQnbAGRAHFUz/mhxLE9gKFDtANBkWdo/IHFNsFIJQRBMMcztPlEaqCOzs7hT2u/Kc5eU12MXiWPJBCCGnRPdDjo6Oa9xCCAERujA8E5qiQJvfxMeED6skjpeimej7IrkmTjvTFQyzgcyg6A6s1HU+TBRCkAU2FO0OV+HiuhAuTGhNOoNjyQchhJwK//X6f0Seq//+X6lj+bS+BQHDFWH+GCzhr73OFxYgDDcUeULXSKVdd10oXAMClp/52/Lzl7nCgCFK1BQ4pHyU2UoIIadI93No/V5x+bhxkTmmXhjAItBg9IAZgH6vuOhc7fUBzPAQAQOsvy5D9A53HuB5SklUaqAfAVLr248lH4QQciKcA5D65qz8O7RiJN19IR+5+VA5lnwQQsi22f2yfbWHPoDZQ3FWKHqYAeijp1ZdF2GennuqkLdVjiUfhBByoOy+Q8MAr1wDnqllVwMGNjTTg+WPMUiuu7QAz7xGdn2FnhuSWyMvmmBYutywK44lH4QQcpicv3j+rHQLq7LhxPyxLz7rJnSMOppC9Gwoenq+yIAbCoxS80SDsYAPBbqmwEyOWX4Id6Yt/17ICzGElpZnuAin2x27O5Z8EELIIcIAn4QQQo6CPRhyJIQQQjaHHRohhJCj4AQ7tAB2bmsqbitFCCGHD+fQCCGEHAXnP/78iG++/wm//fFXo4SfPvsEX3/1OV4872alIyGEELIJZ9/dv2/cmQHAr79/xOsf3m/BJEIIIaQ5Z788fmyd+MPjnx2aQgghhLTnBBeFEEIIOUbOAeA//9QzB+U3Jy7uMPL0RJgMNZh9H+LId/ENbAX6zEU4HXGjfUIIycE3NEIIIUcBO7SdEH8Lxz2GCSGkO7oP8EkIIYTsgDMgDvCZ/jU5liawFSh2gGgyLOy+kTmm2Ci8nEQTDHM7d5S+wQR2dncP+115zvLyGuwCss18xOnjUDGOHp8fLuPIRJgMlWr5ZTr4qkcIIVsYcnR0XOMWQgiI0IXhmdAUBdr8Jj4mfFhwoKcb4cCGopno+yK5Jk4709ONfXKd7sBKXefDhOnlbAhsKNodrsLFdSFcmNCabG21pXyoo2mSFst8TJPYMtHkLXCbstlwoOdt9kxo18BtSr7h6NlyIoSQU+S/Xv+PyHP13/8rdSyf1rcgYLgizB+DJfy11/nCAoThhiJP6BqptOuuC4VrQMDyM39bfv4yVxgwRImaAtvNx+rago1FQzLpymwol08IIadH93No/V5xSblxkTmmXhjALPkjesAMQL9XXIiu9voAZniIgAHWX5cheoc7D/A8JRcBOjEvAqTWvG8rHzW6A1uBnjHcqrShqXxCCDlWzgFIfXNW/h1aMar1vmD5Aof1WVoAW9HhwIIvxhgAyRDrru0ihJDDYPfL9tUe+gBmD8U5oOhhBqCPnlp1XYR5eg6tQt5Wkc3HOoJ7ODDghklntkyXw5sX5gGDewcwrvCSb2eEkBNm9x0aBnjlGvBMLbuqMbChmR4sf9HAD3BpAZ55jew6ET03tLhGXjTBcKurAWXzsaLY+XmYLxc8TnBdWO0CoGQhiu4A1g13DyGEnDbnL54/K93Cqmw4MX/si8+6CR2jjqYQPRuKnp73MuCGAqNUKz0YC/hQoGsKzOSY5YdwZ9ry74W8EENoaXmGi3C63TFI2XwAA4x9C4quQTEBww0xHY0RurOVzYaL0Leg5YccDRf+xRsoqbHIwxteJYSQ7mGAT0IIIUfBHgw5EkIIIZvDDo0QQshRcIIdWrwxsFL2a7KTCCGEkL2Cc2iEEEKOgvMff37EN9//hN/++KtRwk+ffYKvv/ocL553s9KREEII2YSz7+7fN+7MAODX3z/i9Q/vt2ASIYQQ0pyzXx4/tk784fHPDk0hhBBC2nOCi0IIIYQcI+cA8J9/ZrejkN+cuLjDCCGEELIL+IZGCCHkKGCHRggh5CjoPsAnIYQQsgPOgDjAZ/rX5FiBaIJhbgeOfNSWwI535Qgmw+IOHYGdSTucBJgMFShbDf1CCCHk0Ol2yDGwoWgm+r6AEMkvdDHTFQwnuU2lPBP6/Ca+ZhrH8oomQyi6AyuV/mauozQsGCGEEJKiww4tgK07MNwwG5tLHeHWNeCZb5F9x7LgZy4M8Nb0CukH4xCu0Z2VhBBCjpPu5tCiB8wA9HvFuMlqrw9ghocIGCxOGxfZCMsV6QkhhJA6zgFIfXNW/h1aMao1IYQQsgu6G3JUe+gDmD0UA7BEDzMAfVS+fK1NH2HOOTRCCCE1dDiHNsAr14BnatlVjYENzfRg+WMM1qaN019agGdeI71+JLB1ON0ZSQgh5Eg5f/H8WekWVmXDifljX3yWDR2jjqYQPRuKrqQ6IQNuKDCSmBobjAV8KNA1BWZyzPJDuDNt+TchhBBSxgEE+IwwGWow+z7EuPodjxBCyOmy/1tfRe9w5wHWJTszQggh69mrDi2aDHMfYAewNROe4eIV+zNCCCEV7N2QY2Ar0NOrQCwONRJCCKln7zo0QgghpA3nP/78iG++/wm//fFXo4SfPvsEX3/1OV48f1Z/MSGEELJlzr67f9+4MwOAX3//iNc/vN+CSYQQQkhzzn55/Ng68YfHPzs0hRBCCGnPXq1yJIQQQtpyDgD/+aeeOSi/OXFxh5FdE9gK9JmLMImxdux6CSGExPANjRBCyFHADo0QQshR0F2AT0IIIWSHnAFxgM/0r8mxAtEEQ0WBkvplwskgnm9ShhMEk2F8zXCCaHUyk3Y4CTAZKlDyQpqQtymlb2FLPgpb4XiFDEIIIbun2yHHwIaimej7AkIkv9DFTFdyezQC8Ezo85v4mmQhRTQZQtEdWKn0N3Md5iYBPgMbinaHq3AhM4QLE1rSIQ0uLcC7w7u0edEEbxzAukkWeNTIIIQQsns67NAC2LoDww2R2XpRHeHWNeCZb5F9x7LgZy4M8Nb0CukH4xCu0damCJM3Dix/morHpmJ068JYdGKDV3AND3epHi16dwcPFuIN/iVkEEII2TndzaFFD5gB6PeKi9bVXh/ADA8RMFicNi6yy9sr0rcmCT3jeUpp1Ot+BEBV8fLKgHn3DtFoBBUR3t15MNzbOMK2lIzuTCaEENKOcwBS35yVf4dWjGq9j1i+QNWG/erLKximibfBCGP1He48A1e32V6qTgYhhJDd0t2Qo9pDH8DsoTgGFz3MAPRR+fK1Nn2Eeds5tAqbsteNcGMBzn0QDzdaN6vhRVkZhBBCdkqHc2gDvHINeKaWXdUY2NBMD5Y/RvULzgCXFuCZ10ivHwlsvXSobyObogmGuVWTg0sLcN7g+s7LRceWl0EIIWR3nL94/qx0C6uy4cT8sS8+y4aOUUdTiJ4NRU/PNxlwQ5FaULGewVjAhwJdU2Amxyw/hDvTln83RR1NEWIILW2T4SKc5rrXwSUsOHDg4nbQUgYhhJCdcQABPiNMhhrMPiNXE0IIWc/+b32VrDLMDgMSQgghWfaqQ4smw9wH2AFszYRnuHjF/owQQkgFe9WhqaMpbuZaausrHY7lL3cSAQLYuW21uBUVIYQQ4CDm0AghhJB6zn/8+RHffP8Tfvvjr0YJP332Cb7+6nO8eP6s/mJCCCFky5x9d/++cWcGAL/+/hGvf3i/BZMIIYSQ5pz98vixdeIPj392aAohhBDSnr1aFEIIIYS05RwA/vNPPXNQfnPi4g4jhBBCyC7gGxohhJCj4Ag7tPhbNe4bTAghp0V3AT4JIYSQXfJfr/9H5Ln67/+VOlaWVoSuMACB1M/ys5f4FgQMV/iuEV9juCJcncykNVxfuAYE8kJKCBfyMunDpb4wd336+PL/efvL9OavKZFNCCHkael2yDGwoWgm+r6AEMkvdDHTldwejQA8E/r8Jr4m2doqmgyh6A6sVPqbuQ5TMsCnOppCCB8WsJQxHalxrDPvDu8yJgS4dwDrZrGtVmyTdg3cpmw3HB1KevwysKFod7gKFzaGcGFC49ZbhBCyUzrs0ALYugPDDZGJ8qKOcOsa8My3yE5rWfAzFwZ4a3qF9INxCNfY0LTBK7iGh7t0jxbcw4GF7Cb+FvxpqoNLbIdzn9geYfLGgeVPU/HdVIxuXRiFDpMQQshT0t0cWvSAGYB+rxjJU+31AczwEAGDxWnjAqpk+s1R8fLKgHn3DtFoBDXpmAw3zEbRztuUtx1xKBvPU0qjaPcjoCCAEELIk3AOQOqbs/Lv0IpRrfcV9eUVDPMO76IRRniHO8/A1W273sfyBRhrlBBC9ovuhhzVHvoAZg/FcbfoYQagj8qXr7XpI8wl59Cq7XuJq2TYMXp3B8+4wsu8Pd68MA8W3DvA4tqKPBJCCNktHc6hDfDKNeCZWvYbsMCGZnqw/DGqX2oGuLQAz7xGev1IYOulw3t1FDsdFaMbC97dW7y987KLQZY40HMLQPTMwpE1eYwmGPLDN0II2SnnL54/K93Cqmw4MX/si8+yoWPU0RSiZ0PR03NMBtxQpBZRrGcwFvChQNcUmMkxyw/hzrTl3xJSMPYtKLoGxQQMN8R0oXxwCUvX4eD/tXf/rJFbffz33zIu0rlNkQUJNyZM9hHkhhHbaDCk8v0IRs2SVsIQSBX2F4KnXdxo2tyNqwQzanxpIA8gzZD1XRgpRf5AGocU2VTnV8yMrX8z1ow1a3v8ecHAWnP+fKXrYk6OdHS+AcmopqoXkRx8h2XdbgVWvr1o90ek9HDy5+hFpCPdgxQReUhPIMFnxrDn4HcSzL0fXC1uaxxauJOIdFQ3cxMRkcfu8W99lU1XFgaHLcyAsulikOhLzaZERLbNoxrQsmGv9AL2mNDxib2INsag8VufODhudPtTRESelkc1oNn9EceXDpZlzT4ugyC52UlkvvGwVfdZslNHNuxhWbNbilpvLyKylZ7AMzQREZG77f786zXf/PALf/3z30oVP977iK+/+JSXL/buLiwiIrJhO9+ev1t5MAP48+/3vPnx3QZCEhERWd3OH9fv1678+/W/LYYiIiKyvke1KERERGRduwA/feUWDjbfnLi6w8hjtvLL09mQnuMTM91x5PjS0cvXIiKPlGZoC03fgSNKbxKFiojI4/VEB7Tp+2gb3Q84u2KCx1FlS34REXmM2kvwuW2yS2Lg6KHjEBGRRnZgmuAz/1nlWN44nO3YkQ3p5XfxqJtKlcvUzLjm7Y1nO33c/nuaUmbgTuvdbpeVMezl2wxZZxI3Di0sdwDE+I6FZfUKKW1yJ3F3f+OwcI694XhaR+lmRERa1f4tx9jHeQ2nxmCMwaQR3sAt/oCPQyzHp5PMyszKTVyrtJfjtD338nhaZtSn2x9hTELANLVL/vlWNnwLp/M2UyJvgLtkS6xFuicGkwTMU98YM6rd//Gu/rJhD8sd3MRpjOH40sVvI2GpiIgUbOAZWkCSXwVo9zmNPBicz2YvY0J3gBelhTxj83Kx/7Y0ywlIGu6/aPdPcgPPNKFnXRbqtizvb8xbP66cZ/ckJfI2FJCIyDPW/jM076CypN3e7wATrjLocsUE6OxXpzyFcvOva9pbZhxauIUU18EKtVe3sL9s8XmKiEj7doFG75zVv4dWzWr9cMaE1iwbtTmhC9Nbm+5d9Z5KfyIisswGnqFVb/GNzwfgHfHKBux9OsDkqnojMLuaAB3WmtSMzxngEaWzweWmvQ25q7+F55lxqWdoIiKt28AztAFuaQGIO4DgeP5crcuXkUfsO8VVjeMQx48JktsB4i7VwSLm8nZFBq83vvpiWX9dDgOI/deFFZLjcLpCU0RE2rX78sVe7RZWdbcTy8c++6QmdYwXkRx8h5W79xYkprAwwu6PMPshlmvlftynKwqbbcjR5SQJsFwHy59uSzXqn5BGE5x5m15EmgQ4m7oF2L27v+6JIcHCdSz82bEgSYkmzs3fIiLSjlYTfK68V+KzlDHsOfidBKPs2SIirXmiW189YdkFZzEEhxrMRETapAFtg7Jhr/Si+HTD49iL+FLjmYhIq57pgDbd3Niq+6yxs8gidn/E8aWTa99lECQY3ZIVEWldq8/QREREHsruz79e880Pv/DXP/+tVPHjvY/4+otPefmiZqWjiIjIB7bz7fm7lQczgD//fs+bH99tICQREZHV7fxx/X7tyr9f/9tiKCIiIut7potCRERk2+wC/PRVcTuN5psTV3cY+RCavsCtF71FRJ4PzdBERGQraECTJ2b6DmE4vrukiDwv7Sf4FBEReQA7ME3wmf+scixvHM522siG9PK7b5T+c3pebjzsVXfnKNdd9l/jd/TTqE5pZ5BxOG0nm8eWK1M4ZoWMW6g33azYWvD97Ltyuyu1cRNg4Zr2huObtj/E9bm77bvPdXp8mn5n4M7Po619XUTkyfv8zf9M2dH3vzU6Vq6bBBjA4EUmnR9MI+OBIUiq5XLHZl8YwBQOz+p7UVqtX9NPpVy+TBIY8MxtkdREXrHMvO2bdubxF+JNTLDgnFatl0bBknhmfxfOa9U2jEkjr3Jda/832OD1ubvtZuc6P1b+v46IyAYGtMCUf2umP6i3x+vLTX+o8gPSavUXlCv9YFZ+CNPIeLkf2soguKC/crl161UkQa5OdUCpO8/lbSy6rrO2by7IJq9Pk7abnqsGNBGp1/4zNO+gskTe3u8AE64y6NoLymVXTIDOfnWBfaP6i8rdtD9N2xLHVm3G6E4GNw129qvL/Ev92QceTMqNrFdvHFq4haCCu9stWdjGkutasMnrc9+2RUQa2AUavXNW/x5aNav1Y1fOnv2wxoSWy4CAxJzQhemzrpWybLfRxq1NXp/Hde1FZNu0v2w/vqykXxmfD8A74tWy//S29+kAk6vqQ/7sagJ0KEwyVu1nSfsPZnzOAI8onQ1EzM+1xTYWnnfGZUyDci14jNdeRLbOBt5DG+DmV86NQ9wBBMd37dbR5cvII/ad4qrGcYjjxwTJ7Q/2ev0saD8b0nvQl5piLue/89mQ1368tPTqbXQ5DCD2X5NfEDgO3dLtv01en/bb1uAoImW7L1/s1W5hVXc7sXzss09qUsd4EcnBd1i5e15NbzXZ/RFmP8Ry889aPKLU0C+PUmv0Y/dHpPRw8u17Eenoge6DdU9Io8ltPF5EmgQ4q9wubNBG98SQYOE6Fv7sWJCkRBPn5m/Y7PVpr+0uJ0mA5TpYPnhRyqjyfw4ReY5aTfCpvROfkoxhz8HvJBg92BKRLaCtr56r2crD4FCDmYhsBw1oz0A27JV21BgTOj6xF/GlxjMR2RK7Dx2AbJ7dH3EcWlhW7mCgW40isl1afYYmIiLyUHZ//vWab374hb/++W+lih/vfcTXX3zKyxc1Kx1FREQ+sJ1vz9+tPJgB/Pn3e978+G4DIYmIiKxu54/r92tX/v363xZDERERWZ9WOYqIyFbYBfjpq+LWFM03J67uMCKL6cVzEZHN0QxNRES2wjMc0MaElsWD7kcsIiKtaz/Bp4iIyEP4/M3/Kmmsj77/rdGxct0kwOBFJok8A9N/p/Mv08h4MD1e/i5XNy2XC5Jqnu1yGTDlYnWx3Pw79/GitNp+rcQES+JfJaY01165/2KZ2d9BYtJ87LPvC8cIzG13qYm8mnqFMiIi22UDCT593MtjjDGY+eKHcYjlnHGUmulxkxLh4/SGxSSdsY/zGk7NrFwa4Q1crFLeM8vx6STztqblJq5V2q+wGku3P8KYhIBpqhljTLPUI+MQy3KZROltn6dwMc593zSmdQxcXnN6e01iH8eycObnZhKCcn64cr1FZUREtsQGnqEFJIU9AjOG3w0IklEup5lN/zTCi8+4yEp18ysA7T6nkQeDc6Y/w2NCd4AXpcW8Z7Nysf+W4s91OZZ1TOMnSIqDn92n310npjV4Eafzvu0+xwEUz22axJPJVfE/EPL1Zkk2b6+liMh2af8ZmndQXJI+S1MSx1YpQ/JUJ4ObCuW6gL3fASZcZdDlignQ2a/OqgrllrS3snmaleMFA2O2Ykzr6OxXz6N0bvaBB5MG9UREttQu0Oids/r30KpZrRdpmrVaRERkHZtftm/v0wEmVw2eJcWXlEuNzwfgHfHKXt5WdjUBOtRMlO7nrvjXjsnmwIP4soVnbCIi8iHeQ5s+u4l9p/juVzakV1mgUFq0MA5xBxAcz5+rLWhrHOL4MUFyQtNJYKMB9o4+p3+vG5PNfofiM63Z+YqIyOp2X77Yq93Cqu52YvnYZ580Sx1j90ek9HDc3HM0LyIdlX7qvYjk4Dss63YrrvKtSrs/wuyHWPm28IhSQ5MFi9DlJAmwXAfLBy9K71zpWNtnkGBO7hdT9yQlmji41uCmzSQY4JafhYmIyJ0eTYJP7XMoIiL38Qy3vhIRkW2kAU1ERLaCBrTZZsVW3ae8k4mIiDxaj+YZmoiIyH3s/vzrNd/88At//fPfShU/3vuIr7/4lJcvmq10FBER2aSdb8/frTyYAfz593ve/PhuAyGJiIisbueP6/drV/79+t8WQxEREVmfFoWIiMhW2AX46Su3cLD55sTVHUZksafz8njGsOfgs3qsT+ccRWTbaIYmLcq40rZdIvJAdh86gA9vTGi5oHQ2S9j0R4b+B6snInJ/7Sf4FBEReQifv/mfKTv6/rdGx8p1kwCDF5kk8gxM/53Ov0wj48H0ePm7XN20XC5IKv1W2gJTLlYXy82/cx8vSqvt10pMsCT+VWJKc+2V+y+Wmf0dJCbNxz77vnCMwNx2l5rIq6lXKHPH2QZtnOP94xARaar9Z2ixj3t5jDEGM18YMA6xnDOOUjM9blIifJzy1lKxj/MaTs2sXBrhDVysUo40y/HpJPO2puUmrkVvmC2NpdsfYUxCwDQtjTHmztQxN31aLpMove3zFC7Gue+bxrSOgctrTm+vSezjWBbO/NxMQlDOJVeut6hMU/c5xzbjEBFZYAOLQgKSwsOpjOF3A4JklMsNZtM/jfDiMy6yUt386ji7z2nk5ZJgjgndAV6UFp9/zcrF/luKP5PlWNYxjZ8gKQ5+dp9+d52Y1uBFnM77tvscB1A8ty6HATC5Kv4HQr7eLBFpIaFoY/c8x9biEBFZrP1naN5Bcbl2dsFZDHGcT355q5PBTYVyXcDe7wATrjLocsUE6OxXZ1WFckvaW9ks/uB4wcCYrRjTOjr71fMonZt94EF5hWFdvXXc9xzbikNEZIldoNE7Z/XvoVWzWi9SzjwtIiLSps2/h2bv0wEmVw2eJcWXlXQt4/MBeEe8spe3lV1NgA41k4j7uSv+tWOyOfAgvnwCCWoe4rqLiKzoA7xYPX1mEvsOhXUA2ZBeZWFAabHAOMQdQHA8f662oK1xiOPHBMkJTSeBjQbYO/qc/r1uTDb7HYrPkmbn+/i0d91FRDZl9+WLvdotrOpuJ5aPffZJs9Qxdn9ESg/HzT1H8yLSUeln0ItIDr7Dsm634irfqrT7I8x+iJVvC48oNTRZsAhdTpIAy3WwfPCi9M6VjrV9Bgnm5H4xdU9SoomDaw1u2kyCAe4j3G3j/tddRGSzHk2CT+0B+LiMQwuXBKMHnyLyRGgvR6kx3ZPRO9B/WojI06EBTarGb/Fjj6NXGtBE5OnQgMaY0LKw6j7lnUy2xpJztiwst/wivIjI4/donqGJiIjcx+7Pv17zzQ+/8Nc//61U8eO9j/j6i095+aLZSkcREZFN2vn2/N3KgxnAn3+/582P7zYQkoiIyOp2/rh+v3bl36//bTEUERGR9WlRiIiIbIVdgJ++cgsHm29OXN1h5PnIGPYc/M7ty8dP6eXwpxSriEgTmqG1Zvoy8tPwlGIVEWlm96ED+PDGhJYLraezsemPDP02m9yYpxSriEgz7Sf4FBEReQifv/mfKTv6/rdGx8p1kwCDF5kk8gxM/53Ov0wj48H0ePm7XN20XC5IKv1W2gJTLlYXy82/cx8vSqvt10mCYt0gMpFXjO/mHPJ/B4lJ8/3Ovi8cIzCVs1x6vdKbvpe3k5hgwTUqx9rsujbtV0Tkw2v/GVrs414eY4zBzBccjEMs54yj1EyPm5QIH6e8tVTs47yGUzMrl0Z4AxerlCPNcnxiGqC/AAAgAElEQVQ6ybytabmJa9EbZktj6fZHGJMQME1LY4y5M3XMTZ/u4KaOMYYEHz9ucD0GLq85vT2f2MexLJx5XCYhqMkD1+h65duutDO9tTqJ0puYD6+WbOW1ynVd2q+IyANpfYZW+a/16X/VVyZaaWQ8PDOfINXXnc9k5senM466WVWx3OL25m3UTfzqLeozbTZDq5uJluIqlmtyvWZ9l9ouXIPZbGvReRb7bHpdG/QrIvJA2n+G5h0Ul4FnF5zFEMf5xJC3OhncVCjXBez9DjDhKoMuV0yAzn51VlUot6S9lWWL+2yks1+NoRSXfeDBfNXhKterru2bRl9x5IHvWgy8O5bnLznH2uu6rF8RkQeyCzR656z+PbRqVutFypmnZbn7X6/ZSsZsSM/xcabpufXemYhsrc2/h2bv0wEmVw0SscSXlWc84/MBeEe8spe3lV1NgA7rTqQWWthnxmWTZ2it9bdue31GxmCSAGKft3WPuh7iuoqItOwDvFjd5cvII/YdCusGsiG9ykKC6uIIdwDB8XxWsaCtcYjjxwTJCU0nNc0HjC6HAcT+a/JrI8ahW3tL8P5WuV5LZEPC8mIOPOqTULd3XUVEHsruyxd7tVtY1d1OLB/77JNmqWPs/oiUHo6bey7kRaSj0s+kF5EcfIdl3W7FVb71ZvdHmP0QK98WHlFqGiak7HKSBFiuw/QuXHrnSsfuiSHBwnUs/Ju4UqKJc/N3mxpfr+WNcHhpYVk3DRCli5N23v+6iog8rEeT4FN7C4qIyH1oL0cREdkKGtBERGQraEBjTGhZWHWf8s4cIiLyaD2aZ2giIiL3sfvzr9d888Mv/PXPfytV/HjvI77+4lNevmi20lFERGSTdr49f7fyYAbw59/vefPjuw2EJCIisrqdP67fr1359+t/WwxFRERkfVoUIiIiW2EX4Kev3MLB5psTV3cY2UbtvfSdMew5+J0Eo52aRURapRnanTKuJneXEhGRh/UMB7Tpe2fN9/mdpmEx2pJLRORRaz/Bp4iIyAPYgWmCz/xnlWN543C6u8Z42KvutJEN6S3ZhWNeNyuXq5tKlcvUzLjqYpn+e5r2ZeBO6/UqKVaqbmKbds6wN40rm7dtWVhWSCXScVjceSS8qO9gybWZ91E8v9nuJqukkxER2XLt33KMfdzLY4zJ3aYbh1jOGUepmR43KRE+TnlrqdjHeQ2nZlYujfAGbvGHexxiOT6dZN7WtNzErRmcSrF0+yOMSQiYpqUxxtyZOmahgctrTmcxJAQ1udwsd3DTjzGGBB+/nBT0jmtj90ckAQy+yw+oLoNAC0tERAo+f/M/U3b0/W+NjpXrJgEGApMUjqYm8jBB8aAxaWQ8PBOly+oak0Ze7nhiAjDevNLCcovbm7dRiWeJJMDgRSbNnc/t36vEOat703mza5Nvr3yeIiIy1f4zNO+guHgiu+Ashji2ajM8dzK4qVCuC9j7HWDCVQZdrpgAnf3qrKpQbkl7rensL247WxxnsVzTa9PlJI3oOQ4OHlGqDNIiImW7QKN3zurfQ6tmtV6knHlabunaiIjc3+aX7dv7dIDJVYNELPFlJV3L+HwA3hGv7OVtZVcToMNdk6IPYmGcGZdxk3JlGcPXPkQpaQT+a6W1EREp+wDvoXX5MvKIfae4Ui8b0qus0qsurHAHEBzP3wFb0NY4xPFjgqT5rbhGA+zauhwGEPuvya9TGYdu6dZis2szDh18Ik77Nnb/dLpoRCscRUQKdl++2KvdwqrudmL52GefNEsdY/dHpPRw3NyzIi8iHZWGHy8iOfgOy7rdiqt8O87ujzD7IVa+LTyi1NBswWKXkyTAch0sH7woXX+l47JeTgwJFq5j4c+OBUlKNHFu/oa7r804tHAHHlE6H9Rt+qcRZ46LhVY6iojMPZoEn+3tlygiIs/RM9z6SkREtpEGNBER2Qoa0ObbSNV9yjuZiIjIo/VonqGJiIjcx+7Pv17zzQ+/8Nc//61U8eO9j/j6i095+aLZSkcREZFN2vn2/N3KgxnAn3+/582P7zYQkoiIyOp2/rh+v3bl36//bTEUERGR9WlRiIiIbIVdgJ++cgsHm29OXN1h5D70crWIiKxLMzQREdkKGtBERGQrtJ/gU0RE5AHswDTBZ/6zyrG8cTjdXWM87FV32siG9Eo7cTTKgFKut9LuHRnDXr7PkGLWmVl75T5KgTUtV951RBleREQ+nPZvOcY+7uUxxhjMfHHHOMRyfDqJmR43BpNGTFyL3nDJ8DQOsZwzjtJ5vXSaC6zhoJYN38Jprq43wC3XjX2c13Cai8sbuNXB6s5yY0LLZRKlN+d4eKWts0REPpQNPEMLSAo5usaE7gAvSgt5zbD7nEYesf+W+olMxvC7AUEyyuU5m+YC8+IzLhqMFHb/pFj3OKjJih2Q5FdVzuJicF6K645y2RUToJNLmd3ta7WmiMiH0v4zNO+g+CNe80M/Z+93gAlXGXTLX2cXnMUQx1Ypy/NUJ4Mmo8U0QWb+SLA83kVx3VnuFUce+K7FwNOrByIiH9ou0Oids/r30KpZrdtWzljd3PQW4ICAxJzQhektTPeueuuy6Y8M/WxIz/FxpumwNbCJiHwgm1+2b+/TASZX1XuE2dUE6FAzeVtar5HxOQM8onQ2mN30V1K5BQnj8wF4R7yy1yhn9xkZg0kCiH3eamGIiMgH8QHeQ+vyZeQR+05x1d84xPFjguR2wGlULxvSa7x8MOZyPgplQ177cU2ZAW6+vXGIO4DguDyzuqNcNiSsLHDxOND0TETkg9h9+WKvdgurutuJ5WOffdIsdYzdH2H2Qyw3/zzMI0pNbtFGfb2UHk6+nheRjhrcg+yekEaT27peRJoEOOVbjl5EcvAdVu5eZO1tzrvK2X0OLy0sK39+o6XnJyIi7XnWCT6b7h2pPSZFRB4/bX0lIiJbQQOaiIhshSc8oBW3mbLW3h5LRES2wbN+hiYiIttj9+dfr/nmh1/465//Vqr48d5HfP3Fp7x80Wylo4iIyCbtfHv+buXBDODPv9/z5sd3GwhJRERkdTt/XL9fu/Lv1/+2GIqIiMj6nvCiEBERkVu7AD99Vdw+o/nmxNUdRu5DLzCLiMi6NEMTEZGtoAFNRES2QvsJPkVERB7ADkwTfOY/qxzLG4fTXTrGw151x45sSK+0o0ejLDDlepVdQIo7hjTOLCMiIlul/VuOsY97eYwxBjNf3DEOsRyfTmKmx43BpBET16JXySGWMw6xnDOO0nm9lAgf52ZQm2alnkTpTbuHV9r2SkTkOdrAM7SApJBMbEzoDvCitJhjzO5zGnnE/lvqJ1UZw+8GBEk+p5hN/zTCi8+4yIDsignQyaW87va1QlJE5Dlq/xmad1AcUGoGnTl7vwNMuMqgW/46u+AshjjOJwW91cmA7iuOPPBdi4Gn5f4iIs/ZLtDonbP699CqWa3bVps9+oZNf2ToZ0N6jo9j+bOM1hrYRESem80v27f36QCTq+qTrexqAnSombwtrVct22dkDCYJIPZ5q4UhIiLPzgd4D63Ll5FH7DvFFYjjEMePCZIT6idgC+plQ3rzA9mQsLKoxONA0zMRkWdn9+WLvdotrOpuJ5aPffZJs9Qxdn+E2Q+x3PzzMI8oNbkFH/X1Uno4+XpeRDrqzgtweGlhWfk2R0vbFBGR7aQEnyIishW09ZWIiGwFDWgiIrIVNKCJiMhW0IAmIiJbYffnX6/55odf+Ouf/1aq+PHeR3z9xae8fNFspaOIiMgm7Xx7/m7lwQzgz7/f8+bHdxsISUREZHU7f1y/X7vy79f/thiKiIjI+vQMTUREtsIuwE9fuYWDzTcnru4wIiIi8hA0QxMRka2gAU1ERLZC+wk+RUREHsAOTBN85j+rHCsaE1oW1uwTlvOSZUN6ue+t3pBqtrNiG/VlanoOLaxwTDbsVeoWjlkhlXRpS+PKGPZq2i60M425V0plMw6bxy8iIvfT4i3HMaHlMolSjDEYYzi8yv2Yj0Ms54yj1My+T4nwcXqlMqU2zClcNE3YOXB5zem0XhrhxT6OZeFcHs/aSwgY4OZH2iZxlduua0dERB5UewNadsUE6OTST3f7faZ/ZQy/GxAk+VxlNv3TCC8+4yK7LUOQMMonNLP79OszgFZ5Eafzunaf4wAgIDmZN9DlMAAmV7PBqklcNW3Pko8yOK/O9kRE5EG09wzNfsWRB75rMfAi0tF8MAOyC85iiON8gs9bnQxgWiY4bjp61TW0TyW3p3dQOGYfeDBZIa555bq2RUTk0dgFGr1zVv8eWj6DtU1/ZOhnQ3qOj2P5s+zStwNbkBhOFo1XD/igaWlcIiLyJLS/bN/uMzIGkwQQ+7wdA/Y+HWBytWTUalKmba31aXPgQXyp5R8iIg+lxWdoQ8Jh+Qfd48CG+TOn2HeKKx+zIb2bAwvKjMPqasnWNImrCZv9DsVnauMQt+4+poiIbMTuyxd7tVtYFW8n1h/77JNc6hi7z+GlhWXND3hE6e1iC7s/IqWH4+aeV3kR6aiba2KE2Q+x8mWCBHOyzqk10ySuJronKdHEwbVmrQQJSTDAnSyvJyIi7bCMMeahgxAREbkvbX0lIiJbQQOaiIhshScyoJW2w1pjaywREdlueoYmIiJbYffnX6/55odf+Ouf/1aq+PHeR3z9xae8fLF3d2EREZEN2/n2/N3KgxnAn3+/582P7zYQkoiIyOp2/rh+v3bl36//bTEUERGR9T2RRSEiIiLL7QL89JVbONh8c+LqDiMiIiIPQTM0ERHZChrQRERkK7SX4FNEROQhff7mf6bs6PvfGh2r1k1MAIbZJ0hKX6eR8XLf40UmrbRabKO+TFUSTMsmkVetd2e/K8ZdKTOt70WlVoNiX0tjvOu8G107EZHnq8VbjmNCy2USpRhjMMZweJXblmocYjlnHKVm9n1KhI/TK5UptWFO4aJparLYx708ntabZ8q+s98mcft0EnMbUxoxcS16lfxv94hx2Xk3uXYiIs9dazO02QyiMruZfmkib9HMxzPTic20DPUN3CkJMBCYYu0G/S6Nu37mNW3Cy/W3wgxtQYyLz7vJtRMRkfaeodmvOPLAdy0GXkQ6n30AZBecxRDHuSSaOZ0MYFomOF4tsWaBd3DbZ9N+u8vivmICdPbtSl17vwNMuMqgW/165RgXnneTc1ilfxGRLbULNHrnrP49tHwGa5v+yNDPhvQcH8fyZ5mfbweIIDGcLBqvNnjvbGm/DeJ+DJafg4iItL9s3+4zMgaTBBD7vB0D9j4dYHK1ZNRqUmblWFZoc8W4s6sJ0GE6ebM58CC+XCP2u2LcxHUREdlC7Q1o2ZCwskjC48AG6PJl5BH7DuG4WKd3c2BBmXFY/HslDfpdJ+5xiOPHBMkJ00mTzX4HGJwzzpVx6+4RNo3x5rybXDsREdl9+WKvdgur4u3E+mOffZJLHWP3Oby0sKz5AY8oHdG351+PSOnhuLlnQV5EOurmmhhh9kOsfJkgwZysc2oN+20QdyUmPKLU3JQB6J6kRBMH1xrcxJ0EA9xJsxiXnXeTayci8twpwaeIiGwFbX0lIiJbQQOaiIhshScyoI0JLQur7qPdMkREBD1DExGRLbH786/XfPPDL/z1z38rVfx47yO+/uJTXr7Yu7uwiIjIhu18e/5u5cEM4M+/3/Pmx3cbCElERGR1O39cv1+78u/X/7YYioiIyPqeyKIQERGR5XYBfvrKLRxsvjlxdYeRp2ocWriTTW9KnDHsOfidBKOdhkVEWqUZmoiIbAUNaFtl+r6e9iwWkeeovQSfIiIiD2gHpgk+859VjhUVd/SozBSyIb07d/ko7QrScCeQcTgtOx72qvXK/TadxTSKd2lQxV1Nwou1+pmfW1YulzuJbNjDslwGwMCdft+rpMUREdleLd5yHBNaLpMoxRiDMYbDq9wP8zjEcs44Ss3s+5QIH6dXKlNqw5zCRdNbaLGPe3k8rTdf3DEOsRyfTmJu20wjJu4dP/hN4l16OUIsd0CQ6zfBx4/X7Cf2cV7Dae4cvIF7M6jZ/RHGJARw0+eo/5hybouIbNjnb/5nyo6+/63RsULdNDIemCCpFDPGpCbyar5LI+PhmSi9LUN9A3dKAgwEplg7MQEYb9pBqWuvUD4JMHiRSRvHuzSaBf2Wz7FZP/XnVj2Heb9rXkIRkSetvWdo9iuOPPBdi4FXWv6eXXAWQxznk2Te6mQA0zLB8T2Ws3sHxSX32RUToLNfnanY+x1gwlUG3fLXTeJdNvlZ0u/a/ZTP7a5zEBF5ZnaBRu+c1b+Hls9gbdMfGfrZkJ7j41j+LKvy7cAWJIaFr189wsc9S+N9gv2IiGyz9pft231GxmCSAGKft2PA3qcDTK6WjFpNyqwcy+I2s6sJ0KF2EnXfWBbWz7iMm5SrEV9Wxvzx+QC8I15pdiYi0uKAlg0JK4ssPA5sgC5fRh6x7xRXF2ZDejcHFpQZh/d4r2pxm44fEyQn1E+MmsS7vN/DAGL/NflLMg7d0q3FVfoZ4OaPjUPcAQTH1Z1NWv2PAhGRJ2L35Yu92i2sircT64999kkudYzd5/DSwrLmBzyidMR8oZ3dH5HSw3Fzz4u8iHTUzTUxwuyHWPkyQYI5WefUlrSJR5Qali0CbBLvMt0TQ4KF61j4s2NBkhJNnJu/V+rHi0gOvsOybrcpq96q7HKSBFiuw/SOb6qVjiLybCjB5xPwYfaZFBF52rT1lYiIbAUNaCIishWeyIBW2g7rPttRbWU8IiKiZ2giIrIVdn/+9ZpvfviFv/75b6WKH+99xNdffMrLF3t3FxYREdmwnW/P3608mAH8+fd73vz4bgMhiYiIrG7nj+v3a1f+/frfFkMRERFZ3xNZFCIiIrLcLsBPX7mFg803J67uMPJU6eVlEZGnTTM0ERHZChrQRERkK7SX4FNEROQB7cA0wWf+s8qxouIOGpUMKNmQ3p27apR24Wi488Y4nJYdD3vVeuV+62Kr0yjeJfGEY7J5PLn6hWNWSCWUpf1mDHs1bRfamV7DXimdz/waaScTEdlGLd5yHBNaLpMoxRiDMYbDq9yP5zjEcs44Ss3s+5QIH6dXKlNqw5zCRdN8aLGPe3k8rTdf3DEOsRyfTmJu20wjJm71B794Og3ivcvA5TWnN316sY9jWTjzGE1CUJPnrFG/+bbr2hEReW4+f/M/U3b0/W+NjhXqppHxwARJpZgxJjWRV/NdGhkPz0TpbRnqG7hTEmAgMMXaiQnAeNMOSl17hfJJgMGLTNo43gbx3LS3OMbV+51dp1LbxfOpP++6mEREtkV7z9DsVxx54LsWA6+0/D274CyGOLZKGZunOhnAtExw3CyBZi3voLjkPrtiAnT2qwvx7f0OMOEqg2756ybxNlnb39mvFivFaB94MFmj37q2RUSesV2g0Ttn9e+h5TNY2/RHhn42pOf4ONOUyYWBrZphOecRPthZGu8W9isi8pS1v2zf7jMyBpMEEPu8HQP2Ph1gcrVk1GpSZuVYFreZXU2ADjWTt83E0kRr/doceBBfPsL/ShAR2ZD2BrRsSFhZZOFxYAN0+TLyiH2nuLowG9K7ObCgzDhstiKx1uI2HT8mSE6onwg1iXcT2urXZr8DDM5vVz6OQ9y6+5giIlti9+WLvdotrIq3E+uPffZJLnWM3efw0sKy5gc8onRE355/PSKlh+Pmng95Eemom2tihNkPsfJlggRzss6pLWkTjyg1N7EtqndXvJvQVr/dk5Ro4uBas1aChCQY4E6W1xMReaqU4FNERLaCtr4SEZGtoAFNRES2whMZ0ErbYa25HdX2xiMiInqGJiIiW2H351+v+eaHX/jrn/9Wqvjx3kd8/cWnvHyxd3dhERGRDdv59vzdyoMZwJ9/v+fNj+82EJKIiMjqdv64fr925d+v/20xFBERkfU9kUUhIiIiy+0C/PSVWzjYfHPi6g4jT9U4tHAnpSwBIiLyZGiGJiIiW0ED2rM2fZ9Oia5FZBu0l+BTRETkIX3+5n+VNNZH3//W6Fi1bmICMMw+QVL6Oo2Ml/seLzJppdViG/VlqpJgWjaJvGq9cr81sc3rF/pqFG8L8ZTavYmlXK5yQVc7t3wsN//Ofbyo6dmJiDw+Ld5yHBNaLpMoxRiDMYbDq9w2UOMQyznjKDWz71MifJxeqUypDXMKF01vicU+7uXxtN58ccc4xHJ8Oom5bTONmLgWvUr+tvzpNIh37XgatBv7OK/hNBezN3Cx8vcHVzm3Uizd/ghjEgKmGbKNMYyW5dMREXnsWpuhzWYKdZMIY1ITeYtmbJ6ZTgymZWpnIQ0kAQYCU6w9ne3VzTzSyCuUL87QmsS7TjzN2q2vW455xXOraW/expqXXETkUWnvGZr9iiMPfNdi4JWWv2cXnMUQx/kkm7c6GcC0THB8jwSa3kFxyX12xQTo7FdnHvZ+B5hwlUG3/HWTeJtMZirxrNBuuW45ZlY8t5r2RES2yS7Q6J2z+vfQ8hmsbfojQz8b0nN8HMufZVq+HdiCxHCyaLx6hFvUL433EbYrIvKctb9s3+4zMgaTBBD7vB0D9j4dYHK1ZNRqUmblWBa3mV1NgA41E5zNxLJqu/FlZYwfnw/AO+KVvbytpecmIrKl2hvQsiFhZZGFx4EN0OXLyCP2neI7T9mQ3s2BBWXG4T3ek1rcpuPHBMkJ9ROlJvG2GE9tuwPc0gIQdwDB8XzGu+65VbU+cIuIPIDdly/2arewKt5OrD/22Se51DF2n8NLC8uaH/CI0hHzhXN2f0RKD8fNPT/yItJRN9fECLMfYuXLBAnmZJ1TW9ImHlFqWLaor0m868bTqF0vIjn4Dsu63ZasfKty3XO71eUkCbBch+kd4lQrHUXkyVKCz0dI+0qKiKxOW1+JiMhW0IAmIiJb4YkMaNNNdK26zyo7d2xtPCIiomdoIiKyFXZ//vWab374hb/++W+lih/vfcTXX3zKyxd7dxcWERHZsJ1vz9+tPJgB/Pn3e978+G4DIYmIiKxu54/r92tX/v363xZDERERWd8TWRQiIiKy3C7AT1+5hYPNNyeu7jDyVOllZhGRp00zNBER2Qoa0EREZCu0l+BTRETkAe3ANMFn/rPKsaLiDhqVjCjZkN6du2qUduFouPPGOJyWHQ971Xrlfutiq9Mo3tpoCC2LXimdzjzGrFRu3eu19JxFRJ6ZFm85jgktl0mUYozBGMPhVe4HdhxiOWccpWb2fUqEj9MrlSm1YU7homkKstjHvTye1psv7hiHWI5PJzG3baYRE7c64BRPp0G899LC9Vp0ziIiz1CLCT6vmACdXJrkbn/+A5sx/G5AkIxyebps+qcRXnzGRXZbhiAp5uSy+/QbpyALSPIJwxgTugO8KC3kEcPucxp5xP5b6sfKJvHe072v11z5nEVEnqf2nqHZrzjywHctBl5p+Xt2wVkMcZxPRHmrkwFMywTH9/hx9g6KM5SaQeMm3P0OMOEqg2756ybx3ncqdN/rNS9cPmcRkWdqF2j0zln9e2j5DNY2/ZGhnw3pOT7ONAVy4Ye6nHG54BE+/Fka773d83qJiEhB+8v27T4jYzBJALHP2zFg79MBJldLRq0mZVaOZXGb2dUE6FAzeWshFpsDD+LLBvXXvV4iIlLQ4jO0IWFlkYXHgQ3Q5cvII/ad4kq+bEjv5sCCMuOw2YrEWovbdPyYIDmhfgLUJN5lbPY7wOD89hndOMTN3z+89/USEZG83Zcv9mq3sCreTqw/9tknudQxdp/DSwvLmh/wiNLbRQ12f0RKD8fNPRfyItJRN9fECLMfYuXLBAnmZJ1TW9ImHlFq6C95+NQk3mW6JynRxMG1ZrWDhCQY4E5uOrj39RIRkVtK8CkiIltBW1+JiMhW0IAmIiJb4YkMaKXtsNbajmqb4xERET1DExGRrbD786/XfPPDL/z1z38rVfx47yO+/uJTXr7Yu7uwiIjIhu18e/5u5cEM4M+/3/Pmx3cbCElERGR1O39cv1+78u/X/7YYioiIyPqeyKIQERGR5XYBfvrKLRxsvjlxdYcRERGRh6AZmoiIbAUNaCIishXaS/ApIiLygHZgmuAz/1nlWFFxB41KppNsSO/OXTVKu3A02nljWqdXSscyDsv17xffvL3xsKddQUREHpkWbzmOCS2XSZRijMEYw+FV7gd/HGI5ZxylZvZ9SoSP0yuVKbVhTuGilRRgLcQHEPu4l8fTMrns0iIi8rBaTPB5xQTo5FJAd/vzH/yM4XcDgmSUy0Fm0z+N8OIzLrLbMgQJo3yiMrtPv40UYPeOby4gOVFOMhGRx6a9Z2j2K4488F2LgReR5mcv2QVnMcRxPsnmrU4GMC0THG9osLhvfPPC3oFmZSIij9Au0Oids/r30PIZrG36I0M/G9JzfBzLn2VYvh04gsSwcHKz8YdR94xPREQetfaX7dt9RsZgkgBin7djwN6nA0yuloxaTcosrsyBB/Flg7rrxiciIo9ai8/QhoTD8oDgcWADdPky8oh9p7iyMBvSuzmwoMw4rK5GrLDZ7wCDc26KjkPc/P3De8cnIiKP2e7LF3u1W1gVbyfWH/vsk1zqGLvP4aWFZc0PeETp7SILuz8ipYfj5p5TeRHpqJtrYoTZD7HyZYIEc3L3iXRPUqKJg2sNbuolwQB30l58IiLyeCnBp4iIbAVtfSUiIltBA5qIiGyFJzKglbbDWnlrLBER2XZ6hiYiIlth9+dfr/nmh1/465//Vqr48d5HfP3Fp7x8sXd3YRERkQ3b+fb83cqDGcCff7/nzY/vNhCSiIjI6nb+uH6/duXfr/9tMRQREZH1PZFFISIiIsvtAvz0lVs42Hxz4uoOIyIiIg9BMzQREdkKGtCE+Xt+2odZRJ6y9hJ8ioiIPKTP3/zPlB19/1ujY9W6iQnAMPsESenrNDJe7nu8yKSVVott1Gs/8U4AAAppSURBVJepr+NFxZJJUK5/v/jm7SWR1zi2pXUa9peWy1UCr2mr5vzqYrn5d+5Tvo4iIk9Bi7ccx4SWyyRKMcZgjOHwKrct1TjEcs44Ss3s+5QIH6dXKlNqw5zCRSu3wlqIDyD2cS+Pp2Vy2a6XqquzQn/OazidX480whu4WPn7g+MQy/HpJOb2uqURE9eiV84BV4ql2x9hTELANGO3MYZRv9FZiYg8Lq3N0GYzhLrJgzGpibxFMyLPTCcE0zK1s487NZih3Tu+WXsEZpUI6+vcr7808nLH68+9Wm5Z/NM21rr0IiKPRHvP0OxXHHnguxYDLyLNz16yC85iiONc8sycTgYwLRMcbyih5n3jmxf2DprNyvLKde7Zn73fASZcZdDlignQ2a9GVSh3n/hFRJ6AXaDRO2f176HlM1jb9EeGfjak5/g4lj/L+Hw7cASJ4WTReLXxLfPvGd8GfOj+RES2WfvL9u0+I2MwSQCxz9sxYO/TASZXS0atJmUWV+bAg/iyQd1142vTKv3Fl5Wxfnw+AO+IV/bytrKrCdChZvImIrJ12hvQsiFheQECHgc2QJcvI4/Yd4rvOmVDejcHFpQZhw3ej7LZ7wCDc26KjkPc/P28e8fXplX6G+CWFoC4AwiO5zPLxdfN8WOC5ISmk8APNqCLiGzA7ssXe7VbWBVvJ9Yf++yTXOoYu8/hpYVlzQ94ROmI+YI5uz8ipYfj5p4beRHpqJtrYoTZD7HyZYIEc3L3iXRPUqKJg2sNbuolwQB30l58bWrcnxeRHHyHZd1uT1a+VVl73fCIUkOzBYtdTpIAy3WY3olNtdJRRJ4cJfh8xMahhTspLWAREZFa2vpKRES2ggY0ERHZCk9kQJtunmvVfco7ayguEZFnSc/QRERkK+z+/Os13/zwC3/9899KFT/e+4ivv/iUly/27i4sIiKyYTvfnr9beTAD+PPv97z58d0GQhIREVndzh/X79eu/Pv1vy2GIiIisr4nsihERERkuV2An75yCwebb05c3WHkccgY9hz8ToKZbanxcC8pV2MREZH2PZMZWsbV5O5SIiLydD2TAW2aOqZxhmlg/o7ZRvYmftR9i4g8Te0l+BQREXlAOzBN8Jn/rHKsqLhzxnyGMQ7rd84oHq+v28g4LO7SEV7UFKmLobTTx+z7bNjDslwGwMCdfterpJ5ZP5bpc7X8ziLhTdqb5X0vrici8ty1eMtxTGi5TKIUYwzGGA6vpgNE9zCA+IyLrFj+/Cav1+K6d3cbYrkDgsTc1E3w8eMG9Up9mlO4GM/SsZiEAG7abZROpWEs2fAtnM7LpETeAHc2mC7re1k9EZHnrsUEn1dMgE4uPXK3P3tm1f2SyIs5y49o43MGBBx276i71JjQHeBFaSE/WPckJfKWBsvwuwEESXGgsvv0116I2DwWu3+Sy1Nm0z8OajNTl61bT0TkOWjvGZr9iiMPfNdi4JWXx9u8OvLwzy7I+n3s2YDiRek0m/LSukvUDISNZBecxRAct7iMfsVYxqFVzKhNsNF6IiLbrsVnaLOVhGmEF/s4pR3n7VdHePPbjtkFZ7HH0Su7Ud3tMn1u5w4CkvmtzqTJoLRuPRGR56H9Zft2n9H8xzb2eTtftWC/4mh22zG7OCP2jnhVnswsqruwr306wOSqPPRlXC57hraw3j00jWV8zgCPKD1hPj/Mmrwkt249EZFnosVnaEPCykpAj4PSM5/47C1vz+LZYpCmdRfpchhA7L8mX30cTlcJLqv3ZeQR+05xNeU4rKyubD7orRJLzOXNwsUhrxesYKn23ayeiMhztPvyxV7tFlb/z//5/+889tknudQxdp/DSwvLmh/wiNIRhcWB3UMC12VAQDJitboLdE8MCRauY+HPjgVJSjRxbv6uY/dHmP0Qy7VuB5wgwZzctMxJEmC5DpYPXpTeudKxUSzdE9JogjPv14tIkwCnsPtYXd9N6omIPF8fOMGn9jUUEZHN2P2gvc0Wg0SnGsxERKRdH3SGNg4tXDQ7ExGR9n2QzYmn2znN0resNJiVtqaq2abqw3lMsYiISNkHfoYmIiKyGbs//3rNNz/8wl///LdSxY/3PuLrLz7l5Yu9uwuLiIhs2M635+9WHswA/vz7PW9+fLeBkERERFa388f1+7Ur/379b4uhiIiIrO+ZZKwWEZFttwvw01fF7Sb+3//v98rmw3XH6nYYeRyqL3CPw9kqy6Y7+YuIyJPyTGZoGdrHV0Rkuz2TAW2Wnmal2dn0vbPyZsXt1xERkTa0l+BTRETkIX3+5n+m7Oj73xodq9ZNTACG2SdIZkcDDF5k0nLpwvH6uo0kwU09wBBEJvIw5Bqpj6HY5/z7NPKK7YHxonL0RYvqNDn3m3+nkfEK51FzEcplatoWEXmOWrzlOCa0XCZROs2mbAyHV9MtobqHAcyzVefKnw+Y5UVbXPfubkMsd0CQmJu6CT53pgobh1ilPs0pXIxnqWVMQgA37d6VOmZRnbvPfSb2cV7D6TyWNMIbuFj5+5fjEMs54yidn2tKhI+jrbdERNpM8HnFBOjs3/7wd/uzH+zul0SzbNU3xucMCDjs3lF3qTGhO8CLUvJbRHZPUiJvabAMvxtAkBQHKrtPv+19k+869xsBSf4Zn93nNPJgcM44F3OQ5PPE2fRPI7zKgCki8vy09wzNfsWRB75rMfDKy+NtXh15+GcXZP0+9uzH2YtSunfWXaJmIGwku+AshuD4Q+z6f8e5z3kHlXO29zvAhKsMukxjjmOrNht3JwO9jyAiz9ku0Oids/r30PIZrKcrCfvZkJ7j40xTLd8MTvarIzz/jIusT59pXrSjU7tR3adu+bmvJkgMyr4jIlLV/rJ9u8/IGEwSQOzzdv4IyH7F0ezWW3ZxRuwd8aoyJVlQd2Ff+3SAyVX5flvG5bJnaAvrbUiTc48vK8/BxucDmJf90DGLiDwxLT5DGxIOyz+2Hgf55z3HAfHZW96excUFEXfWXaTLYQCx/5p89XHo1t6Wy9f7MvKIfaf4ztg4rLxDts4AUq2z5NxvDHBLC0DcwsKRBTFnQ3p68U1EhN2XL/Zqt7Aq3k6sP/bZJ7nUMXafw0sLy5of8IjS/AIGoHtI4LoMCEhGrFZ3ge6JIcHCdSz82bEgSYkmzs3fdez+CLMfYrm5Z1JBgjm5aZmTJMByHaZ3QNM7VzourbPo3G9OOSI5+A7Lut2GrHx70e6PSOnh5GP2ItKR7kGKiHzgBJ/VPRafj8Xnrn0mRUTub/eD9pZNF0REp89tMON5n7uIyAfwQQe08VufOEgYPcNpyHM+dxGRD+GDbE6cDXtY1uy22kq3Gqeb/Vp1nw++O8Z6sax/7iIisooP/AxNRERkM55J+hgREdl2GtBERGQraEATEZGtoAFNRES2ggY0ERHZChrQRERkK2hAExGRraABTUREtoIGNBER2Qoa0EREZCtoQBMRka2gAU1ERLaCBjQREdkKGtBERGQraEATEZGtoAFNRES2ggY0ERHZChrQRERkK2hAExGRraABTUREtoIGNBER2Qoa0EREZCv8X+MPFkc2JPhKAAAAAElFTkSuQmCC;" vertex="1" parent="1">
          <mxGeometry x="150" y="10" width="436" height="805" as="geometry" />
        </mxCell>
        <mxCell id="XZMZt5-lRbTDoXXR2d9s-2" value="" style="rounded=0;whiteSpace=wrap;html=1;fillColor=none;strokeWidth=2;strokeColor=#FF0000;" vertex="1" parent="1">
          <mxGeometry x="150" y="20" width="100" height="20" as="geometry" />
        </mxCell>
        <mxCell id="XZMZt5-lRbTDoXXR2d9s-3" value="" style="rounded=0;whiteSpace=wrap;html=1;fillColor=none;strokeWidth=2;strokeColor=#FF0000;" vertex="1" parent="1">
          <mxGeometry x="150" y="352" width="100" height="20" as="geometry" />
        </mxCell>
        <mxCell id="XZMZt5-lRbTDoXXR2d9s-4" value="" style="rounded=0;whiteSpace=wrap;html=1;fillColor=none;strokeWidth=2;strokeColor=#FF0000;" vertex="1" parent="1">
          <mxGeometry x="160" y="540" width="100" height="20" as="geometry" />
        </mxCell>
        <mxCell id="XZMZt5-lRbTDoXXR2d9s-5" value="" style="rounded=0;whiteSpace=wrap;html=1;fillColor=none;strokeWidth=2;strokeColor=#FF0000;" vertex="1" parent="1">
          <mxGeometry x="160" y="560" width="100" height="20" as="geometry" />
        </mxCell>
        <mxCell id="XZMZt5-lRbTDoXXR2d9s-6" value="" style="rounded=0;whiteSpace=wrap;html=1;fillColor=none;strokeWidth=2;strokeColor=#FF0000;" vertex="1" parent="1">
          <mxGeometry x="380" y="250" width="100" height="20" as="geometry" />
        </mxCell>
        <mxCell id="XZMZt5-lRbTDoXXR2d9s-7" value="" style="rounded=0;whiteSpace=wrap;html=1;fillColor=none;strokeWidth=2;strokeColor=#FF0000;" vertex="1" parent="1">
          <mxGeometry x="380" y="270" width="100" height="20" as="geometry" />
        </mxCell>
        <mxCell id="XZMZt5-lRbTDoXXR2d9s-8" value="" style="rounded=0;whiteSpace=wrap;html=1;fillColor=none;strokeWidth=2;strokeColor=#FF0000;" vertex="1" parent="1">
          <mxGeometry x="380" y="290" width="100" height="20" as="geometry" />
        </mxCell>
        <mxCell id="XZMZt5-lRbTDoXXR2d9s-9" value="" style="rounded=0;whiteSpace=wrap;html=1;fillColor=none;strokeWidth=2;strokeColor=#FF0000;" vertex="1" parent="1">
          <mxGeometry x="140" y="206" width="190" height="20" as="geometry" />
        </mxCell>
        <mxCell id="XZMZt5-lRbTDoXXR2d9s-10" value="" style="rounded=0;whiteSpace=wrap;html=1;fillColor=none;strokeWidth=2;strokeColor=#FF0000;" vertex="1" parent="1">
          <mxGeometry x="140" y="226" width="190" height="20" as="geometry" />
        </mxCell>
        <mxCell id="XZMZt5-lRbTDoXXR2d9s-11" value="" style="rounded=0;whiteSpace=wrap;html=1;fillColor=none;strokeWidth=2;strokeColor=#FF0000;" vertex="1" parent="1">
          <mxGeometry x="150" y="268" width="160" height="20" as="geometry" />
        </mxCell>
        <mxCell id="XZMZt5-lRbTDoXXR2d9s-12" value="" style="rounded=0;whiteSpace=wrap;html=1;fillColor=none;strokeWidth=2;strokeColor=#FF0000;" vertex="1" parent="1">
          <mxGeometry x="150" y="290" width="200" height="20" as="geometry" />
        </mxCell>
        <mxCell id="XZMZt5-lRbTDoXXR2d9s-13" value="" style="rounded=0;whiteSpace=wrap;html=1;fillColor=none;strokeWidth=2;strokeColor=#FF0000;" vertex="1" parent="1">
          <mxGeometry x="150" y="500" width="150" height="20" as="geometry" />
        </mxCell>
        <mxCell id="XZMZt5-lRbTDoXXR2d9s-14" value="" style="rounded=0;whiteSpace=wrap;html=1;fillColor=none;strokeWidth=2;strokeColor=#FF0000;" vertex="1" parent="1">
          <mxGeometry x="150" y="520" width="120" height="20" as="geometry" />
        </mxCell>
      </root>
    </mxGraphModel>
  </diagram>
</mxfile>
